<svg width="24" height="24" viewBox="0 0 24 24" fill="none" xmlns="http://www.w3.org/2000/svg">
<path d="M12 6C10.3 6 9 7.3 9 9C9 10.7 10.3 12 12 12C13.7 12 15 10.7 15 9C15 7.3 13.7 6 12 6ZM12 10C11.4 10 11 9.6 11 9C11 8.4 11.4 8 12 8C12.6 8 13 8.4 13 9C13 9.6 12.6 10 12 10Z" fill="#0077FF"/>
<path d="M17.6 14.6C18.3 13 18.8 11.1 19 9C19.2 6.6 17.1 2 12 2C6.3 2 4.8 7 5 9.1C5.2 11 5.8 13 6.5 14.6C3.6 15.3 2 16.5 2 18C2 20.7 7.2 22 12 22C16.8 22 22 20.7 22 18C22 16.5 20.5 15.3 17.6 14.6ZM4 18C4 17.8 4.8 17 7.3 16.5C8.1 17.9 8.9 19.1 9.6 19.9C5.9 19.5 4 18.4 4 18ZM7 8.9C6.9 7.8 7.7 4.1 12 4C15.9 3.9 17.1 7.6 17 8.9C16.8 11.1 15.9 15.1 12 19.5C10.6 18.1 7.6 14.2 7 8.9ZM14.4 19.9C15.1 19 16 17.9 16.7 16.5C19.2 17 20 17.8 20 18C20 18.4 18.1 19.5 14.4 19.9Z" fill="#0077FF"/>
</svg>
