<svg width="24" height="24" viewBox="0 0 24 24" fill="none" xmlns="http://www.w3.org/2000/svg">
<path d="M20.7 7.3L15.7 2.3C15.5 2.1 15.3 2 15 2H4C3.4 2 3 2.4 3 3V21C3 21.6 3.4 22 4 22H20C20.6 22 21 21.6 21 21V8C21 7.7 20.9 7.5 20.7 7.3ZM16 5.4L17.6 7H16V5.4ZM19 20H5V4H14V8C14 8.6 14.4 9 15 9H19V20Z" fill="#0077FF"/>
<path d="M16 16H8C7.4 16 7 16.4 7 17C7 17.6 7.4 18 8 18H16C16.6 18 17 17.6 17 17C17 16.4 16.6 16 16 16Z" fill="#0077FF"/>
<path d="M7 12C7 12.6 7.4 13 8 13H16C16.6 13 17 12.6 17 12C17 11.4 16.6 11 16 11H8C7.5 11 7 11.4 7 12Z" fill="#0077FF"/>
<path d="M8 8H11C11.6 8 12 7.6 12 7C12 6.4 11.6 6 11 6H8C7.5 6 7 6.4 7 7C7 7.6 7.5 8 8 8Z" fill="#0077FF"/>
</svg>
