<svg xmlns="http://www.w3.org/2000/svg" viewBox="0 0 98 94"><title>cat-lir-ripe_icon</title><rect width="94" height="94" rx="6" ry="6" style="fill:#00408a"/><rect x="4" width="94" height="94" rx="6" ry="6" style="fill:#07f"/><path d="M103,26a9,9,0,1,1,12,8.49V50H94v9.51a9,9,0,1,1-6,0V50H67V34.49a9,9,0,1,1,6,0V44h36V34.49A9,9,0,0,1,103,26ZM70,29a3,3,0,1,0-3-3A3,3,0,0,0,70,29Zm42,0a3,3,0,1,0-3-3A3,3,0,0,0,112,29ZM91,71a3,3,0,1,0-3-3A3,3,0,0,0,91,71Z" transform="translate(-44)" style="fill:#00408a"/><path d="M107,26a9,9,0,1,1,12,8.49V50H98v9.51a9,9,0,1,1-6,0V50H71V34.49a9,9,0,1,1,6,0V44h36V34.49A9,9,0,0,1,107,26ZM74,29a3,3,0,1,0-3-3A3,3,0,0,0,74,29Zm42,0a3,3,0,1,0-3-3A3,3,0,0,0,116,29ZM95,71a3,3,0,1,0-3-3A3,3,0,0,0,95,71Z" transform="translate(-44)" style="fill:#fff"/></svg>