<svg xmlns="http://www.w3.org/2000/svg" viewBox="0 0 98 94"><title>cat-www_icon</title><rect width="94" height="94" rx="6" ry="6" style="fill:#00408a"/><rect x="4" width="94" height="94" rx="6" ry="6" style="fill:#07f"/><path d="M120.1,32.9l-15-15A2.72,2.72,0,0,0,103,17H70a2.83,2.83,0,0,0-3,3V74a2.83,2.83,0,0,0,3,3h48a2.83,2.83,0,0,0,3-3V35A2.72,2.72,0,0,0,120.1,32.9ZM106,27.2l4.8,4.8H106ZM115,71H73V23h27V35a2.83,2.83,0,0,0,3,3h12Z" transform="translate(-44)" style="fill:#00408a"/><path d="M85,47H79l6,18h6l3-9,3,9h6l6-18h-6l-3,9-3-9H91l-3,9Z" transform="translate(-44)" style="fill:#00408a"/><path d="M124.1,32.9l-15-15A2.72,2.72,0,0,0,107,17H74a2.83,2.83,0,0,0-3,3V74a2.83,2.83,0,0,0,3,3h48a2.83,2.83,0,0,0,3-3V35A2.72,2.72,0,0,0,124.1,32.9ZM110,27.2l4.8,4.8H110ZM119,71H77V23h27V35a2.83,2.83,0,0,0,3,3h12Z" transform="translate(-44)" style="fill:#fff"/><path d="M89,47H83l6,18h6l3-9,3,9h6l6-18h-6l-3,9-3-9H95l-3,9Z" transform="translate(-44)" style="fill:#fff"/></svg>