<svg xmlns="http://www.w3.org/2000/svg" viewBox="0 0 98 94"><title>cat-builder-access_icon</title><rect width="94" height="94" rx="6" ry="6" style="fill:#00408a"/><rect x="4" width="94" height="94" rx="6" ry="6" style="fill:#07f"/><path d="M79,29A12,12,0,1,1,94,40.62V74a3,3,0,0,1-6,0V71H85a3,3,0,0,1,0-6h3V62H82a3,3,0,0,1,0-6h6V40.62A12,12,0,0,1,79,29Zm6,0a6,6,0,1,0,6-6A6,6,0,0,0,85,29Z" transform="translate(-44)" style="fill:#00408a"/><path d="M83,29A12,12,0,1,1,98,40.62V74a3,3,0,0,1-6,0V71H89a3,3,0,0,1,0-6h3V62H86a3,3,0,0,1,0-6h6V40.62A12,12,0,0,1,83,29Zm6,0a6,6,0,1,0,6-6A6,6,0,0,0,89,29Z" transform="translate(-44)" style="fill:#fff"/></svg>