<svg xmlns="http://www.w3.org/2000/svg" viewBox="0 0 98 94"><title>cat-colocation_icon</title><rect width="94" height="94" rx="6" ry="6" style="fill:#00408a"/><rect x="4" width="94" height="94" rx="6" ry="6" style="fill:#07f"/><path d="M88,62a3,3,0,1,0-3,3A3,3,0,0,0,88,62Z" transform="translate(-44)" style="fill:#00408a"/><path d="M88,53a3,3,0,1,0-3,3A3,3,0,0,0,88,53Z" transform="translate(-44)" style="fill:#00408a"/><path d="M112,56a9,9,0,1,1-8.49,12H100v6a2.83,2.83,0,0,1-3,3H64a2.83,2.83,0,0,1-3-3V20a2.83,2.83,0,0,1,3-3H97a2.83,2.83,0,0,1,3,3v6h3.51a9,9,0,1,1,0,6H100V62h3.51A9,9,0,0,1,112,56Zm-3-27a3,3,0,1,0,3-3A3,3,0,0,0,109,29Zm0,36a3,3,0,1,0,3-3A3,3,0,0,0,109,65ZM67,71H94V23H67Z" transform="translate(-44)" style="fill:#00408a"/><path d="M85,59a3,3,0,1,1-3,3A3,3,0,0,1,85,59Zm0-9a3,3,0,1,1-3,3A3,3,0,0,1,85,50Z" transform="translate(-44)" style="fill:#00408a"/><path d="M79,62a3,3,0,1,0-3,3A3,3,0,0,0,79,62Z" transform="translate(-44)" style="fill:#00408a"/><path d="M79,53a3,3,0,1,0-3,3A3,3,0,0,0,79,53Z" transform="translate(-44)" style="fill:#00408a"/><path d="M76,59a3,3,0,1,1-3,3A3,3,0,0,1,76,59Zm0-9a3,3,0,1,1-3,3A3,3,0,0,1,76,50Z" transform="translate(-44)" style="fill:#00408a"/><rect x="29" y="29" width="15" height="6" rx="1" ry="1" style="fill:#00408a"/><rect x="29" y="38" width="15" height="6" rx="1" ry="1" style="fill:#00408a"/><path d="M92,62a3,3,0,1,0-3,3A3,3,0,0,0,92,62Z" transform="translate(-44)" style="fill:#fff"/><path d="M92,53a3,3,0,1,0-3,3A3,3,0,0,0,92,53Z" transform="translate(-44)" style="fill:#fff"/><path d="M116,56a9,9,0,1,1-8.49,12H104v6a2.83,2.83,0,0,1-3,3H68a2.83,2.83,0,0,1-3-3V20a2.83,2.83,0,0,1,3-3h33a2.83,2.83,0,0,1,3,3v6h3.51a9,9,0,1,1,0,6H104V62h3.51A9,9,0,0,1,116,56Zm-3-27a3,3,0,1,0,3-3A3,3,0,0,0,113,29Zm0,36a3,3,0,1,0,3-3A3,3,0,0,0,113,65ZM71,71H98V23H71Z" transform="translate(-44)" style="fill:#fff"/><path d="M89,59a3,3,0,1,1-3,3A3,3,0,0,1,89,59Zm0-9a3,3,0,1,1-3,3A3,3,0,0,1,89,50Z" transform="translate(-44)" style="fill:#fff"/><path d="M83,62a3,3,0,1,0-3,3A3,3,0,0,0,83,62Z" transform="translate(-44)" style="fill:#fff"/><path d="M83,53a3,3,0,1,0-3,3A3,3,0,0,0,83,53Z" transform="translate(-44)" style="fill:#fff"/><path d="M80,59a3,3,0,1,1-3,3A3,3,0,0,1,80,59Zm0-9a3,3,0,1,1-3,3A3,3,0,0,1,80,50Z" transform="translate(-44)" style="fill:#fff"/><rect x="33" y="29" width="15" height="6" rx="1" ry="1" style="fill:#fff"/><rect x="33" y="38" width="15" height="6" rx="1" ry="1" style="fill:#fff"/></svg>