<svg xmlns="http://www.w3.org/2000/svg" viewBox="0 0 98 94"><title>cat-tv_icon</title><rect width="94" height="94" rx="6" ry="6" style="fill:#00408a"/><rect x="4" width="94" height="94" rx="6" ry="6" style="fill:#07f"/><path d="M73,38.94h5V53h4.48V38.94h5V35H73Z" transform="translate(-44)" style="fill:#00408a"/><path d="M96.86,35H91.72l5.53,18h6.22L109,35h-5.14l-3.43,12.69h-.14Z" transform="translate(-44)" style="fill:#00408a"/><path d="M118,23H64a2.83,2.83,0,0,0-3,3V62a2.83,2.83,0,0,0,3,3h6v3a3,3,0,0,0,6,0V65h30v3a3,3,0,0,0,6,0V65h6a2.83,2.83,0,0,0,3-3V26A2.83,2.83,0,0,0,118,23ZM67,59h48V29H67Z" transform="translate(-44)" style="fill:#00408a"/><path d="M77,38.94h5V53h4.48V38.94h5V35H77Z" transform="translate(-44)" style="fill:#fff"/><path d="M100.86,35H95.72l5.53,18h6.22L113,35h-5.14l-3.43,12.69h-.14Z" transform="translate(-44)" style="fill:#fff"/><path d="M122,23H68a2.83,2.83,0,0,0-3,3V62a2.83,2.83,0,0,0,3,3h6v3a3,3,0,0,0,6,0V65h30v3a3,3,0,0,0,6,0V65h6a2.83,2.83,0,0,0,3-3V26A2.83,2.83,0,0,0,122,23Zm-3,36H71V29h48Z" transform="translate(-44)" style="fill:#fff"/></svg>