<svg xmlns="http://www.w3.org/2000/svg" viewBox="0 0 26 26"><path d="M14,14.9a.94.94,0,0,0,.75-.26l.51-.62a1.19,1.19,0,0,1,1.43-.18,14,14,0,0,1,2.44,1.67.92.92,0,0,1,.21,1.21h0A4.69,4.69,0,0,1,18.28,18h0a1.83,1.83,0,0,1-1.69.44h0a21.21,21.21,0,0,1-5.47-2.89,16.56,16.56,0,0,1-5.3-7.35h0a1.63,1.63,0,0,1,.46-1.61h0a5.39,5.39,0,0,1,1.31-1h0a1,1,0,0,1,1.29.2,14.11,14.11,0,0,1,1.76,2.33,1,1,0,0,1-.2,1.35L9.8,10a.89.89,0,0,0-.29.65A6.51,6.51,0,0,0,14,14.9Zm5.59-2.83a.34.34,0,0,1-.34-.33h0a6.15,6.15,0,0,0-1.87-4.68A6.58,6.58,0,0,0,12.8,5.33.34.34,0,0,1,12.46,5a.33.33,0,0,1,.34-.33h0a7.29,7.29,0,0,1,5.07,1.92A6.77,6.77,0,0,1,20,11.74a.34.34,0,0,1-.34.33H19.6Zm-1.82-.67h0a.35.35,0,0,1-.33-.34h0a3.72,3.72,0,0,0-1-2.78,4.35,4.35,0,0,0-3-1.24.35.35,0,0,1-.32-.36.32.32,0,0,1,.35-.3h0A5.11,5.11,0,0,1,17,7.84a4.29,4.29,0,0,1,1.21,3.23.34.34,0,0,1-.35.33h-.07ZM16,10.83a.34.34,0,0,1-.34-.31,1.62,1.62,0,0,0-1.5-1.72,1,1,0,0,0-.25,0,.33.33,0,1,1,0-.66h0a2.28,2.28,0,0,1,2.4,2.14v.2a.35.35,0,0,1-.33.35Zm7.78,3.75a6.2,6.2,0,0,1-5.5,5.85,23.77,23.77,0,0,1-7,.56s-2.81,3.19-3.68,4.06a.44.44,0,0,1-.4.15c-.15,0-.19-.2-.19-.44V20.41H7c-5.39-1.48-5.07-6.86-5-9.68s.6-5.13,2.26-6.68c3-2.56,9.11-2.17,9.11-2.17,5.18.06,7.67,1.5,8.24,2,1.92,1.56,2.89,5.27,2.18,10.71Zm-.74-12C22.38,1.94,19.63.07,13.51,0c0,0-7.23-.42-10.75,2.66C.8,4.55.11,7.28,0,10.61s-.15,9.74,6.27,11.45h0v2.62s0,1.06.7,1.28,1.41-.55,2.26-1.41c.47-.48,1.11-1.18,1.6-1.72A26,26,0,0,0,19,22.27a7.87,7.87,0,0,0,6.74-7.22c.84-6.51-.41-10.64-2.67-12.5Z" transform="translate(0 0)"/></svg>