<svg xmlns="http://www.w3.org/2000/svg" viewBox="0 0 26 26"><path d="M22.15,3.83A13,13,0,0,0,0,12.86a11.6,11.6,0,0,0,1.79,6.43L0,26l6.88-1.78a12.26,12.26,0,0,0,6.19,1.64A12.88,12.88,0,0,0,26,13,12.49,12.49,0,0,0,22.15,3.83ZM13.07,23.54A11,11,0,0,1,7.57,22l-.42-.27L3,22.85l1.1-4-.28-.41A10.38,10.38,0,0,1,2.2,12.73,10.72,10.72,0,0,1,12.93,2.05,10.33,10.33,0,0,1,20.5,5.2a10.43,10.43,0,0,1,3.16,7.53A10.54,10.54,0,0,1,13.07,23.54ZM19,15.6l-2.2-1.09c-.27-.14-.55-.14-.68.13-.28.28-.83,1.1-1.11,1.23-.13.28-.41.28-.68.14a9.73,9.73,0,0,1-2.62-1.64A8.77,8.77,0,0,1,9.9,12.18a.62.62,0,0,1,.14-.69,1.8,1.8,0,0,0,.42-.54.75.75,0,0,0,.27-.55c.14-.27,0-.41,0-.55s-.69-1.64-1-2.32S9.22,7,9.08,7H8.53a1.22,1.22,0,0,0-.83.41,3.63,3.63,0,0,0-1.1,2.74A4.84,4.84,0,0,0,8,13.41a14.17,14.17,0,0,0,5.5,4.79c.83.27,1.38.55,1.79.68a3.62,3.62,0,0,0,4.26-1.36A2,2,0,0,0,19.67,16,3,3,0,0,0,19,15.6Z"/></svg>