<svg xmlns="http://www.w3.org/2000/svg" viewBox="0 0 20 20"><path d="M9.65,4.15a5.62,5.62,0,0,1,4,1.81h0A.86.86,0,0,1,14.49,5h.12a.94.94,0,0,1,.9,1v8.23a.51.51,0,0,0,.86.47c1.26-1.36,2.78-7-.79-10.24A8.28,8.28,0,0,0,5.4,3.63a8.21,8.21,0,0,0-2.57,9.61,7.65,7.65,0,0,0,9.52,4.12c1.48-.62,2.16,1.45.63,2.13A10,10,0,0,1,1.22,15C-.81,11.32-.71,4.87,4.68,1.53A10.2,10.2,0,0,1,17.52,3.25C20.94,7,20.75,14,17.4,16.67a2.32,2.32,0,0,1-3.75-1.76v-.59a5.53,5.53,0,0,1-4,1.73,6,6,0,0,1,0-11.9Zm3.8,5.75A3.66,3.66,0,0,0,9.72,6.21H9.64c-2.28,0-3.55,1.88-3.55,4a3.56,3.56,0,0,0,3.54,3.89,3.79,3.79,0,0,0,3.83-3.74Z"/></svg>