<svg xmlns="http://www.w3.org/2000/svg" viewBox="0 0 98 94"><title>cat-cloud_icon</title><rect width="94" height="94" rx="6" ry="6" style="fill:#00408a"/><rect x="4" width="94" height="94" rx="6" ry="6" style="fill:#07f"/><path d="M74.5,56A13.5,13.5,0,0,1,74,29a18,18,0,0,1,34,0,13.5,13.5,0,0,1-.48,27H94v3.51A9,9,0,0,1,99.49,65H118a3,3,0,0,1,0,6H99.49a9,9,0,0,1-17,0H64a3,3,0,0,1,0-6H82.51A9,9,0,0,1,88,59.51V56ZM67,42.5A7.5,7.5,0,0,0,74.5,50h33a7.5,7.5,0,0,0,0-15H106a3.68,3.68,0,0,1-3.37-3A11.71,11.71,0,0,0,91,23a12.08,12.08,0,0,0-11.54,9A3.78,3.78,0,0,1,76,35H74.5A7.5,7.5,0,0,0,67,42.5ZM91,71a3,3,0,1,0-3-3A3,3,0,0,0,91,71Z" transform="translate(-44)" style="fill:#00408a"/><path d="M78.5,56A13.5,13.5,0,0,1,78,29a18,18,0,0,1,34,0,13.5,13.5,0,0,1-.48,27H98v3.51A9,9,0,0,1,103.49,65H122a3,3,0,0,1,0,6H103.49a9,9,0,0,1-17,0H68a3,3,0,0,1,0-6H86.51A9,9,0,0,1,92,59.51V56ZM71,42.5A7.5,7.5,0,0,0,78.5,50h33a7.5,7.5,0,0,0,0-15H110a3.68,3.68,0,0,1-3.37-3A11.71,11.71,0,0,0,95,23a12.08,12.08,0,0,0-11.54,9A3.78,3.78,0,0,1,80,35H78.5A7.5,7.5,0,0,0,71,42.5ZM95,71a3,3,0,1,0-3-3A3,3,0,0,0,95,71Z" transform="translate(-44)" style="fill:#fff"/></svg>