<svg xmlns="http://www.w3.org/2000/svg" viewBox="0 0 98 94"><title>cat-briefcase_icon</title><rect width="94" height="94" rx="6" ry="6" style="fill:#00408a"/><rect x="4" width="94" height="94" rx="6" ry="6" style="fill:#07f"/><path d="M115,32H103V26l-6-6H85l-6,6v6H67a6,6,0,0,0-6,6V53a6,6,0,0,0,3,5.19V68a6,6,0,0,0,6,6h42a6,6,0,0,0,6-6V58.16A6,6,0,0,0,121,53V38A6,6,0,0,0,115,32ZM85,26H97v6H85ZM67,38h48V53H100V44H82v9H67ZM94,56H88V50h6Zm18,12H70V59H82v3h18V59h12Z" transform="translate(-44)" style="fill:#00408a"/><path d="M119,32H107V26l-6-6H89l-6,6v6H71a6,6,0,0,0-6,6V53a6,6,0,0,0,3,5.19V68a6,6,0,0,0,6,6h42a6,6,0,0,0,6-6V58.16A6,6,0,0,0,125,53V38A6,6,0,0,0,119,32ZM89,26h12v6H89ZM71,38h48V53H104V44H86v9H71ZM98,56H92V50h6Zm18,12H74V59H86v3h18V59h12Z" transform="translate(-44)" style="fill:#fff"/></svg>