<svg xmlns="http://www.w3.org/2000/svg" viewBox="0 0 98 94"><title>cat-contract_icon</title><rect width="94" height="94" rx="6" ry="6" style="fill:#00408a"/><rect x="4" width="94" height="94" rx="6" ry="6" style="fill:#07f"/><path d="M106,30H88a2.83,2.83,0,0,0-3,3,2.83,2.83,0,0,0,3,3h18a2.83,2.83,0,0,0,3-3A2.83,2.83,0,0,0,106,30Z" transform="translate(-44)" style="fill:#00408a"/><path d="M106,42H88a3,3,0,0,0,0,6h18a3,3,0,0,0,0-6Z" transform="translate(-44)" style="fill:#00408a"/><path d="M106,54H88a3,3,0,0,0,0,6h18a3,3,0,0,0,0-6Z" transform="translate(-44)" style="fill:#00408a"/><path d="M112,15H82a8.84,8.84,0,0,0-9,9V36H64a2.83,2.83,0,0,0-3,3V66a8.84,8.84,0,0,0,9,9h42a8.84,8.84,0,0,0,9-9V24A8.84,8.84,0,0,0,112,15ZM73,66a3,3,0,0,1-6,0V42h6Zm42,0a2.83,2.83,0,0,1-3,3H78.4a8.88,8.88,0,0,0,.6-3V24a2.83,2.83,0,0,1,3-3h30a2.83,2.83,0,0,1,3,3Z" transform="translate(-44)" style="fill:#00408a"/><path d="M110,30H92a2.83,2.83,0,0,0-3,3,2.83,2.83,0,0,0,3,3h18a2.83,2.83,0,0,0,3-3A2.83,2.83,0,0,0,110,30Z" transform="translate(-44)" style="fill:#fff"/><path d="M110,42H92a3,3,0,0,0,0,6h18a3,3,0,0,0,0-6Z" transform="translate(-44)" style="fill:#fff"/><path d="M110,54H92a3,3,0,0,0,0,6h18a3,3,0,0,0,0-6Z" transform="translate(-44)" style="fill:#fff"/><path d="M116,15H86a8.84,8.84,0,0,0-9,9V36H68a2.83,2.83,0,0,0-3,3V66a8.84,8.84,0,0,0,9,9h42a8.84,8.84,0,0,0,9-9V24A8.84,8.84,0,0,0,116,15ZM77,66a3,3,0,0,1-6,0V42h6Zm42,0a2.83,2.83,0,0,1-3,3H82.4a8.88,8.88,0,0,0,.6-3V24a2.83,2.83,0,0,1,3-3h30a2.83,2.83,0,0,1,3,3Z" transform="translate(-44)" style="fill:#fff"/></svg>