<svg xmlns="http://www.w3.org/2000/svg" viewBox="0 0 98 94"><title>cat-cover_icon</title><rect width="94" height="94" rx="6" ry="6" style="fill:#00408a"/><rect x="4" width="94" height="94" rx="6" ry="6" style="fill:#07f"/><path d="M91,29a9,9,0,1,0,9,9A8.84,8.84,0,0,0,91,29Zm0,12a3,3,0,1,1,3-3A2.83,2.83,0,0,1,91,41Z" transform="translate(-44)" style="fill:#00408a"/><path d="M107.8,54.8A55.17,55.17,0,0,0,112,38c.6-7.2-5.7-21-21-21C73.9,17,69.4,32,70,38.3a58.19,58.19,0,0,0,4.5,16.5C65.8,56.9,61,60.5,61,65c0,8.1,15.6,12,30,12s30-3.9,30-12C121,60.5,116.5,56.9,107.8,54.8ZM67,65c0-.6,2.4-3,9.9-4.5a66,66,0,0,0,6.9,10.2C72.7,69.5,67,66.2,67,65Zm9-27.3c-.3-3.3,2.1-14.4,15-14.7,11.7-.3,15.3,10.8,15,14.7-.6,6.6-3.3,18.6-15,31.8A56.6,56.6,0,0,1,76,37.7Zm22.2,33a60,60,0,0,0,6.9-10.2c7.5,1.5,9.9,3.9,9.9,4.5C115,66.2,109.3,69.5,98.2,70.7Z" transform="translate(-44)" style="fill:#00408a"/><path d="M95,29a9,9,0,1,0,9,9A8.84,8.84,0,0,0,95,29Zm0,12a3,3,0,1,1,3-3A2.83,2.83,0,0,1,95,41Z" transform="translate(-44)" style="fill:#fff"/><path d="M111.8,54.8A55.17,55.17,0,0,0,116,38c.6-7.2-5.7-21-21-21C77.9,17,73.4,32,74,38.3a58.19,58.19,0,0,0,4.5,16.5C69.8,56.9,65,60.5,65,65c0,8.1,15.6,12,30,12s30-3.9,30-12C125,60.5,120.5,56.9,111.8,54.8ZM71,65c0-.6,2.4-3,9.9-4.5a66,66,0,0,0,6.9,10.2C76.7,69.5,71,66.2,71,65Zm9-27.3c-.3-3.3,2.1-14.4,15-14.7,11.7-.3,15.3,10.8,15,14.7-.6,6.6-3.3,18.6-15,31.8A56.6,56.6,0,0,1,80,37.7Zm22.2,33a60,60,0,0,0,6.9-10.2c7.5,1.5,9.9,3.9,9.9,4.5C119,66.2,113.3,69.5,102.2,70.7Z" transform="translate(-44)" style="fill:#fff"/></svg>