<svg xmlns="http://www.w3.org/2000/svg" viewBox="0 0 98 94"><title>cat-rates_icon</title><rect width="94" height="94" rx="6" ry="6" style="fill:#00408a"/><rect x="4" width="94" height="94" rx="6" ry="6" style="fill:#07f"/><path d="M61,29a2.83,2.83,0,0,1,3-3h3V68H64a2.83,2.83,0,0,1-3-3Z" transform="translate(-44)" style="fill:#00408a"/><path d="M122,26H68a2.83,2.83,0,0,0-3,3V65a2.83,2.83,0,0,0,3,3h54a2.83,2.83,0,0,0,3-3V29A2.83,2.83,0,0,0,122,26Zm-3,36H71V44h48Zm0-24H71V32h48Z" transform="translate(-44)" style="fill:#fff"/><path d="M77,56h6a3,3,0,0,0,0-6H77a3,3,0,0,0,0,6Z" transform="translate(-44)" style="fill:#fff"/></svg>