<svg xmlns="http://www.w3.org/2000/svg" viewBox="0 0 98 94"><title>cat-builder-monitoring_icon</title><rect width="94" height="94" rx="6" ry="6" style="fill:#00408a"/><rect x="4" width="94" height="94" rx="6" ry="6" style="fill:#07f"/><path d="M73,35a6,6,0,0,0-6,6V53a6,6,0,0,0,6,6H91a6,6,0,0,0,6-6V41a6,6,0,0,0-6-6Zm29.94,4.81L109,33.76A6,6,0,0,1,113.24,32H115a6,6,0,0,1,6,6V56a6,6,0,0,1-6,6h-1.76A6,6,0,0,1,109,60.24l-6.06-6.05A12,12,0,0,1,91,65H73A12,12,0,0,1,61,53V41A12,12,0,0,1,73,29H91a12,12,0,0,1,11.94,10.81ZM113.25,56H115V38h-1.76l-9,9,9,9ZM76,53a3,3,0,1,1,2.12-.88A3,3,0,0,1,76,53Z" transform="translate(-44)" style="fill:#00408a"/><path d="M77,35a6,6,0,0,0-6,6V53a6,6,0,0,0,6,6H95a6,6,0,0,0,6-6V41a6,6,0,0,0-6-6Zm29.94,4.81L113,33.76A6,6,0,0,1,117.24,32H119a6,6,0,0,1,6,6V56a6,6,0,0,1-6,6h-1.76A6,6,0,0,1,113,60.24l-6.06-6.05A12,12,0,0,1,95,65H77A12,12,0,0,1,65,53V41A12,12,0,0,1,77,29H95a12,12,0,0,1,11.94,10.81ZM117.25,56H119V38h-1.76l-9,9,9,9ZM80,53a3,3,0,1,1,2.12-.88A3,3,0,0,1,80,53Z" transform="translate(-44)" style="fill:#fff"/></svg>