<svg xmlns="http://www.w3.org/2000/svg" viewBox="0 0 98 94"><title>cat-services_icon</title><rect width="94" height="94" rx="6" ry="6" style="fill:#00408a"/><rect x="4" width="94" height="94" rx="6" ry="6" style="fill:#07f"/><path d="M118,59a2.83,2.83,0,0,0,3-3V20a2.83,2.83,0,0,0-3-3H64a2.83,2.83,0,0,0-3,3V56a2.83,2.83,0,0,0,3,3H88.3v.6A9.56,9.56,0,0,0,82.9,65H64.3a3,3,0,0,0,0,6H82.9a8.88,8.88,0,0,0,16.8,0h18a3,3,0,0,0,0-6h-18a9.56,9.56,0,0,0-5.4-5.4V59ZM67,23h48V35H67ZM91.3,71a3,3,0,1,1,3-3A2.83,2.83,0,0,1,91.3,71ZM67,53V41h48V53Z" transform="translate(-44)" style="fill:#00408a"/><path d="M73,32a3,3,0,1,0-3-3A3,3,0,0,0,73,32Z" transform="translate(-44)" style="fill:#00408a"/><path d="M82,32a3,3,0,1,0-3-3A3,3,0,0,0,82,32Z" transform="translate(-44)" style="fill:#00408a"/><path d="M109,32a3,3,0,1,0-3-3A3,3,0,0,0,109,32Z" transform="translate(-44)" style="fill:#00408a"/><path d="M73,50a3,3,0,1,0-3-3A3,3,0,0,0,73,50Z" transform="translate(-44)" style="fill:#00408a"/><path d="M82,50a3,3,0,1,0-3-3A3,3,0,0,0,82,50Z" transform="translate(-44)" style="fill:#00408a"/><path d="M109,50a3,3,0,1,0-3-3A3,3,0,0,0,109,50Z" transform="translate(-44)" style="fill:#00408a"/><path d="M122,59a2.83,2.83,0,0,0,3-3V20a2.83,2.83,0,0,0-3-3H68a2.83,2.83,0,0,0-3,3V56a2.83,2.83,0,0,0,3,3H92.3v.6A9.56,9.56,0,0,0,86.9,65H68.3a3,3,0,0,0,0,6H86.9a8.88,8.88,0,0,0,16.8,0h18a3,3,0,0,0,0-6h-18a9.56,9.56,0,0,0-5.4-5.4V59ZM71,23h48V35H71ZM95.3,71a3,3,0,1,1,3-3A2.83,2.83,0,0,1,95.3,71ZM71,53V41h48V53Z" transform="translate(-44)" style="fill:#fff"/><path d="M77,32a3,3,0,1,0-3-3A3,3,0,0,0,77,32Z" transform="translate(-44)" style="fill:#fff"/><path d="M86,32a3,3,0,1,0-3-3A3,3,0,0,0,86,32Z" transform="translate(-44)" style="fill:#fff"/><path d="M113,32a3,3,0,1,0-3-3A3,3,0,0,0,113,32Z" transform="translate(-44)" style="fill:#fff"/><path d="M77,50a3,3,0,1,0-3-3A3,3,0,0,0,77,50Z" transform="translate(-44)" style="fill:#fff"/><path d="M86,50a3,3,0,1,0-3-3A3,3,0,0,0,86,50Z" transform="translate(-44)" style="fill:#fff"/><path d="M113,50a3,3,0,1,0-3-3A3,3,0,0,0,113,50Z" transform="translate(-44)" style="fill:#fff"/></svg>