<svg xmlns="http://www.w3.org/2000/svg" viewBox="0 0 98 94"><title>cat-ip-transit_icon</title><rect width="94" height="94" rx="6" ry="6" style="fill:#00408a"/><rect x="4" width="94" height="94" rx="6" ry="6" style="fill:#07f"/><path d="M109,44H99.46a9,9,0,0,0-16.92,0H73c-1,0-6-.3-6-6V35c0-5.49,4.62-6,6-6h30.54a9,9,0,1,0,0-6H73c-4.83,0-12,3.18-12,12v3c0,8.82,7.17,12,12,12h9.54a9,9,0,0,0,16.92,0H109c1,0,6,.3,6,6v3c0,5.49-4.62,6-6,6H78.46a9,9,0,1,0,0,6H109c4.83,0,12-3.21,12-12V56C121,47.21,113.83,44,109,44Zm3-21a3,3,0,1,1-2.12.88A3,3,0,0,1,112,23ZM70,71a3,3,0,1,1,2.12-.88A3,3,0,0,1,70,71Z" transform="translate(-44)" style="fill:#00408a"/><path d="M113,44h-9.54a9,9,0,0,0-16.92,0H77c-1,0-6-.3-6-6V35c0-5.49,4.62-6,6-6h30.54a9,9,0,1,0,0-6H77c-4.83,0-12,3.18-12,12v3c0,8.82,7.17,12,12,12h9.54a9,9,0,0,0,16.92,0H113c1,0,6,.3,6,6v3c0,5.49-4.62,6-6,6H82.46a9,9,0,1,0,0,6H113c4.83,0,12-3.21,12-12V56C125,47.21,117.83,44,113,44Zm3-21a3,3,0,1,1-2.12.88A3,3,0,0,1,116,23ZM74,71a3,3,0,1,1,2.12-.88A3,3,0,0,1,74,71Z" transform="translate(-44)" style="fill:#fff"/></svg>