<svg xmlns="http://www.w3.org/2000/svg" viewBox="0 0 236 78.8"><defs><linearGradient id="a" x1="81.16" y1="66.82" x2="156.81" y2="46.96" gradientTransform="matrix(1 0 0 -1 0 99)" gradientUnits="userSpaceOnUse"><stop offset="0" stop-color="#a7ce38"/><stop offset=".56" stop-color="#2f7a30"/><stop offset="1" stop-color="#a7ce38"/></linearGradient></defs><path d="M132.91 69.89c-.04-.76-.03-1.25 0 0zM103.89 69.89c.04-.76.03-1.25 0 0zM132.87 69.88c.01-1.24 0-.75 0 0zM51.33 43.28h6.72v18.91h-6.72zM38.21 53.53l-4.95-10.25h-7.68l8.96 17.31-5.76 11.7h7.2l14.39-29.01h-7.2l-4.96 10.25zM24.94 34.3h-8.79L7.2 46.48V34.3H0v27.89h7.2v-13.3l9.43 13.3h9.27L14.23 47.44 24.94 34.3zM54.68 32.85a3.85 3.85 0 103.84 3.85 3.84 3.84 0 00-3.84-3.85zM176.76 43.28h6.64v18.91h-6.64zM180 32.85a3.85 3.85 0 103.84 3.85 3.85 3.85 0 00-3.84-3.85zM74.67 43.28l-4.16 9.61-4.15-9.61h-7.2l8.63 18.91h5.44l8.63-18.91h-7.19z" fill="#fff"/><path d="M165.65 34.3h-7.2v25c-4.47-4-7.66-6.3-12.39-8.43a17.69 17.69 0 008.4-11.87c1.2-6.17 2.55-14 3.19-17.23-8.47 1-18.22 1.77-24.94 5.93.4-6.49-1.39-12.14-14.31-27.72-12.92 15.58-14.71 21.23-14.31 27.72-6.72-4.16-16.47-5-24.94-5.93.64 3.26 2 11.06 3.19 17.23a17.69 17.69 0 008.4 11.87c-5.68 2.56-9.13 5.35-15.27 11.06 17.8 13.36 18.78 11.3 28.42 7.94 0-1.25 0-.79 0 0 0 1.12-.06 3.62-.12 8.48 6.8-2.48 11.67-1.36 14.63-8.57 3 7.21 7.83 6.09 14.63 8.57l-.12-8.48c0-.78 0-1.24 0 0 9.58 3.34 10.61 5.39 28.1-7.7h13.43v-6.04h-8.79zM200.63 42.6a7 7 0 00-6 2.92v-2.25H188v18.92h6.72V51.13a3.2 3.2 0 116.39 0v11.06h6.72V51.13c.03-5.83-1.97-8.53-7.2-8.53zM225.93 52.01l9.59-8.89h-9.27l-7.04 6.89V32.86h-6.71v29.33h6.71v-7.7l7.36 7.7H236l-10.07-10.18z" fill="#fff"/><path d="M118.4 6c-16.55 21-13.19 20.35-.24 54.33-14.79-25.4-6.16-30.77-35-34 4.24 23.24.16 19.07 34.7 34.46-22.78-5.37-20.71-12.66-37.25 1.76 16.22 11.79 13.11 8.18 37.25-1.28-10.17 5.95-10.86 4.6-10.86 13.65 7.91-2.33 6.79-.4 11.43-13.79 4.64 13.39 3.36 11.38 11.43 13.79-.16-9.14-.72-7.7-10.87-13.63 24.14 9.46 21 13.07 37.25 1.28-16.55-14.42-14.47-7.13-37.25-1.76 34.54-15.39 30.46-11.22 34.7-34.46-28.87 3.21-20.23 8.58-35 34C131.59 26.35 135 27 118.4 6z" transform="translate(0 -.87)" fill="url(#a)"/><path d="M168.83 21.05c-1.66-10.7-19.69-5.57-32.33 4.67l-1.31 1.1.46 1.14 1.41-.5a78.32 78.32 0 0111.48-3.33c-39.19 33.82-67.6 40.52-70.75 39s1.32-7.52 8.09-15l1-1.1-.88-.9c-.51.25-1 .51-1.52.78-14.33 7.69-26.06 22.35-16.87 28 12.31 7.61 69-25.42 83.74-51.07 1.59.09 2.54.67 2.61 1.95.2 3.65-18.41 29.1-69.08 53 28.06.34 86.28-42.66 83.95-57.74z" fill="#fff"/><path d="M148 26.6c-32.65 30.36-91.61 54.42-67.8 25.17-13.94 10.81-16.47 18.36-11.5 21.56 8.79 5.69 61.16-21.08 79.3-46.73z" fill="#07f"/><path d="M93.17 76.47c40.59-18.34 85.63-63.44 49.49-52.83 15.35-8.66 23.26-8.08 24.28-2.23 1.81 10.33-43.15 48.29-73.77 55.06z" fill="#07f"/></svg>