<svg viewBox="0 0 390 253" fill="none" xmlns="http://www.w3.org/2000/svg"><path fill="#fff" d="M50 153h290v100H50z"/><path d="M77.5 180.5h-2.9l-3.6 2.2v2.8l3.3-2.1h.1V195h3.1v-14.5zm4.5 14.7c1 0 1.7-.8 1.7-1.7 0-1-.8-1.7-1.7-1.7a1.7 1.7 0 100 3.4zm21-9.7c-.4-3.3-3-5.2-6.3-5.2-3.8 0-6.8 2.7-6.8 7.4 0 4.8 3 7.5 6.8 7.5 3.7 0 6-2.5 6.3-5.2h-3c-.4 1.6-1.6 2.5-3.2 2.5-2.2 0-3.7-1.7-3.7-4.8 0-3 1.4-4.7 3.7-4.7 1.7 0 2.9 1 3.1 2.5h3.1zm2.2 9.5h3v-3.9h1.1l2.7 3.9h3.6l-3.9-5.5 3.9-5.4H112l-3 4.2h-.8v-4.2h-3V195zm14.8.2c1.6 0 2.7-.7 3.2-1.7v1.5h3v-7.4c0-2.6-2.3-3.7-4.7-3.7-2.6 0-4.3 1.3-4.7 3.3l2.8.2c.2-.7.8-1.2 1.9-1.2 1 0 1.6.5 1.6 1.4 0 .7-.7.8-2.6 1-2.2.2-4.1 1-4.1 3.4 0 2.1 1.5 3.2 3.6 3.2zm.9-2c-1 0-1.6-.5-1.6-1.3 0-.9.7-1.3 1.7-1.5.7 0 1.8-.2 2.1-.5v1.2c0 1.1-.9 2-2.2 2zm10.5-9.1h-3V195h3v-4.3h3.7v4.3h2.9v-11h-3v4.3h-3.7v-4.2zm10.4 15c2.3 0 3.5-1.2 4-3l4.3-12H147l-2.3 8-2.3-8H139l3.9 11.2-.2.5c-.4 1-1.2 1-2.2.7l-.7 2.3c.4.1 1.1.3 2 .3zm12.7-8v-7h-2.8V195h3l3.9-7v7h2.9v-11h-3l-4 7zm3.5-10.8c0 .7-.4 1.3-1.4 1.3-1 0-1.5-.7-1.5-1.3h-2c0 1.7 1.3 2.9 3.5 2.9 2.1 0 3.5-1.2 3.5-3H158zm24 7.4c0-4.7-3-7.4-6.9-7.4-3.9 0-6.8 2.7-6.8 7.4 0 4.8 3 7.5 6.8 7.5 1 0 1.8-.1 2.6-.4l1.1 1.4h3l-2.2-2.6a7.6 7.6 0 002.3-5.9zm-8 2.2l2 2.5h-.9c-2.2 0-3.7-1.6-3.7-4.7 0-3 1.5-4.7 3.7-4.7 2.3 0 3.7 1.6 3.7 4.7 0 1.6-.4 2.8-1 3.6l-1.1-1.4H174zm10.2 5.1h3v-5.2h2.3l2.8 5.2h3.4l-3.1-5.7c1.6-.7 2.6-2.1 2.6-4 0-3-2-4.8-5.2-4.8h-5.8V195zm3-7.6V183h2.2c1.7 0 2.6.8 2.6 2.2 0 1.4-.9 2.2-2.6 2.2h-2.1zm16.9.4h-6.7v2.4h6.7v-2.4zm2.6 7.2h3v-3.9h1.1l2.7 3.9h3.6l-3.9-5.5 3.9-5.4h-3.6l-3 4.2h-.8v-4.2h-3V195zm16.2.2c3.3 0 5.3-2.3 5.3-5.6 0-3.4-2-5.7-5.3-5.7-3.4 0-5.4 2.3-5.4 5.7 0 3.3 2 5.6 5.4 5.6zm0-2.3c-1.6 0-2.3-1.4-2.3-3.3 0-2 .7-3.3 2.3-3.3 1.5 0 2.2 1.4 2.2 3.3s-.7 3.3-2.2 3.3zm6.4 5.3h3V195h6.7v3.2h2.8v-5.6h-1.6v-8.5h-8.4l-.3 3.6c-.2 2.1-.4 4.3-1.3 4.9h-.9v5.6zm3.9-5.6c.6-1 .9-2.6 1-5l.2-1.2h2.9v6.2h-4.1zM71.2 225h10.3v-2.5h-6v-.1l2-2c3-2.8 3.9-4.2 3.9-5.8 0-2.6-2.1-4.3-5.2-4.3-3 0-5.2 1.8-5.2 4.6h3c0-1.4.8-2.2 2.2-2.2 1.2 0 2.2.8 2.2 2s-.7 2-2 3.3l-5.2 4.8v2.2zm14.4.2c.9 0 1.7-.8 1.7-1.7 0-1-.8-1.7-1.7-1.7a1.7 1.7 0 100 3.4zm13.5 0c3.2 0 5.6-1.8 5.6-4.3 0-1.8-1.2-3-3.3-3.4 1.6-.4 2.7-1.5 2.7-3.1 0-2.3-2-4.1-5-4.1s-5.2 1.7-5.3 4.2h3c0-1 1-1.8 2.3-1.8 1.2 0 2 .7 2 1.8 0 1.2-1 2-2.3 2h-1.4v2.2h1.4c1.6 0 2.7.8 2.7 2s-1 2-2.4 2-2.4-.7-2.5-1.8h-3c0 2.5 2.3 4.3 5.5 4.3zm10.9 0c1.6 0 2.7-.7 3.2-1.7v1.5h3v-7.4c0-2.6-2.3-3.7-4.7-3.7-2.6 0-4.3 1.3-4.7 3.3l2.8.2c.2-.7.8-1.2 1.9-1.2 1 0 1.6.5 1.6 1.4 0 .7-.7.8-2.6 1-2.2.2-4.1 1-4.1 3.4 0 2.1 1.5 3.2 3.6 3.2zm.9-2c-1 0-1.6-.5-1.6-1.3 0-.9.7-1.3 1.7-1.5.7 0 1.8-.2 2.1-.5v1.2c0 1.1-.9 2-2.2 2zm7.6 1.8h5.4c2.7 0 4.2-1.1 4.2-3 0-1.4-1.1-2.5-3-2.7 1.5-.3 2.4-1 2.4-2.3 0-1.9-1.7-3-4.4-3h-4.6v11zm2.8-2.3v-2.3h2.6c.8 0 1.3.4 1.3 1.2 0 .7-.5 1.1-1.3 1.1h-2.6zm0-4.1v-2.2h1.8c1 0 1.6.4 1.6 1 0 .8-.6 1.2-1.5 1.2h-1.9zm11.8 6.6c1.6 0 2.7-.7 3.2-1.7h.1v1.5h2.9v-7.4c0-2.6-2.2-3.7-4.7-3.7-2.6 0-4.3 1.3-4.7 3.3l2.8.2c.2-.7.8-1.2 2-1.2 1 0 1.5.5 1.5 1.4 0 .7-.7.8-2.6 1-2.2.2-4 1-4 3.4 0 2.1 1.4 3.2 3.5 3.2zm.9-2c-1 0-1.6-.5-1.6-1.3 0-.9.7-1.3 1.8-1.5.6 0 1.7-.2 2-.5v1.2c0 1.1-.9 2-2.2 2zm10.5-9.1h-2.9V225h3v-4.3h3.6v4.3h3v-11h-3v4.3h-3.7v-4.2zm7.9 2.4h3.5v8.5h2.8v-8.5h3.6V214h-10v2.4zm14.4 8.7c1.6 0 2.7-.7 3.2-1.7v1.5h3v-7.4c0-2.6-2.2-3.7-4.7-3.7-2.6 0-4.3 1.3-4.7 3.3l2.8.2c.2-.7.8-1.2 2-1.2 1 0 1.5.5 1.5 1.4 0 .7-.7.8-2.6 1-2.2.2-4.1 1-4.1 3.4 0 2.1 1.5 3.2 3.6 3.2zm.9-2c-1 0-1.6-.5-1.6-1.3 0-.9.7-1.3 1.8-1.5.6 0 1.7-.2 2-.5v1.2c0 1.1-.9 2-2.2 2zm6.9 1.8h3.5l2.8-4.3h.5v4.3h3v-4.3h.4l2.8 4.3h3.6l-3.8-5.7 3.7-5.2h-3.4l-2.8 4.3h-.5V214h-3v4.3h-.5l-2.8-4.3h-3.5l3.8 5.2-3.8 5.7zm20.1 4c2.3 0 3.5-1 4.1-2.8l4.2-12-3.2-.1-2.2 8h-.2l-2.2-8H192l4 11.2-.3.5c-.4 1-1.1 1-2.2.7l-.7 2.3c.5.1 1.2.3 2 .3zm12.8-8v-7h-3v11h3l4-7v7h2.9v-11h-3l-4 7zm3.4-10.7c0 .7-.4 1.3-1.4 1.3-1 0-1.4-.7-1.4-1.3H206c0 1.7 1.3 2.9 3.5 2.9 2.1 0 3.5-1.2 3.5-3h-2.1zm9.7 17.9h3V225h6.6v3.2h2.9v-5.6h-1.7v-8.5H223l-.2 3.6c-.2 2.1-.4 4.3-1.4 4.9h-.8v5.6zm3.8-5.6c.7-1 1-2.6 1.1-5l.1-1.2h3v6.2h-4.2zm15.4 2.6c3.3 0 5.4-2.3 5.4-5.6 0-3.4-2.1-5.7-5.4-5.7-3.3 0-5.4 2.3-5.4 5.7 0 3.3 2 5.6 5.4 5.6zm0-2.3c-1.5 0-2.3-1.4-2.3-3.3 0-2 .8-3.3 2.3-3.3 1.5 0 2.3 1.4 2.3 3.3s-.8 3.3-2.3 3.3zm6.5 5.3h3V225h6.6v3.2h2.9v-5.6H257v-8.5h-8.4l-.3 3.6c-.1 2.1-.3 4.3-1.3 4.9h-.8v5.6zm3.8-5.6c.7-1 1-2.6 1-5l.2-1.2h3v6.2H250zm13.6 2.6c1.6 0 2.6-.7 3.1-1.7h.1v1.5h2.9v-7.4c0-2.6-2.2-3.7-4.6-3.7-2.6 0-4.4 1.3-4.8 3.3l2.8.2c.2-.7.9-1.2 2-1.2 1 0 1.6.5 1.6 1.4 0 .7-.8.8-2.7 1-2.1.2-4 1-4 3.4 0 2.1 1.5 3.2 3.6 3.2zm.8-2c-1 0-1.6-.5-1.6-1.3 0-.9.7-1.3 1.8-1.5.7 0 1.7-.2 2-.5v1.2c0 1.1-.9 2-2.2 2zm6.6-6.7h3.5v8.5h2.8v-8.5h3.6V214h-10v2.4zm16.2 8.7c3.3 0 5.4-2.3 5.4-5.6 0-3.4-2-5.7-5.4-5.7-3.3 0-5.3 2.3-5.3 5.7 0 3.3 2 5.6 5.3 5.6zm0-2.3c-1.5 0-2.3-1.4-2.3-3.3 0-2 .8-3.3 2.3-3.3 1.5 0 2.3 1.4 2.3 3.3s-.8 3.3-2.3 3.3zm7.4 2.1h3v-3.9h1.1l2.7 3.9h3.6l-3.9-5.5 3.9-5.4h-3.6l-3 4.2h-.8v-4.2h-3V225zm13.5.2c.9 0 1.6-.8 1.7-1.7 0-1-.8-1.7-1.7-1.7a1.7 1.7 0 100 3.4z" fill="#142149"/><g filter="url(#filter0_d)"><path fill="#fff" d="M50 25h290v128H50z"/></g><path d="M116.3 40h9.4v4.7H121v4.6h-9.3v14h-9.4v-4.6h4.7v-14h9.3V40zM65 40v32.7h32.7V40H65zm28 28H69.7V44.7H93V68zm37.3-28v32.7H163V40h-32.7zm28 28H135V44.7h23.3V68z" fill="#000"/><path d="M88.3 49.3h-14v14h14v-14zm65.4 0h-14v14h14v-14zM121 54h-4.7v4.7h4.7V54zm0 4.7h4.7v18.6H121V68h-4.7v4.7h-4.6v-9.4h9.3v-4.6z" fill="#000"/><path d="M102.3 68h4.7v4.7h4.7v4.6H107v9.4h4.7V82h4.6v-4.7h4.7v14h-9.3V96H107v-4.7h-4.7V82H93v-4.7h9.3V68zm-18.6 9.3h-9.4V82h9.4v-4.7zm42 0h9.3V82h-4.7v4.7h-4.6v-9.4zm18.6 0h-4.6V82h4.6v-4.7zM65 82h9.3v4.7H79v4.6h-4.7V96h-4.6v-9.3H65V82zm18.7 0H93v4.7h-4.7v4.6H93V96h-9.3V82zm60.6 0h4.7v4.7h4.7v14H149V96h-9.3v4.7H135v-9.4h9.3V82z" fill="#000"/><path d="M97.7 86.7H93v4.6h4.7v-4.6zm65.3 0h-4.7v4.6h4.7v-4.6zm-65.3 4.6h4.6v9.4H93V96h4.7v-4.7zm28 0H121V96h4.7v-4.7zm-56 4.7H65v4.7h4.7V96zm9.3 0h-4.7v4.7H79V96zm32.7 0h9.3v4.7h-4.7v9.3h-4.6v9.3H107V110h-4.7v-9.3h4.7v4.6h4.7V96zm18.6 0h-4.6v4.7h4.6V96zm32.7 0h-4.7v4.7h4.7V96zm-37.3 4.7H121v9.3h4.7v-9.3zm23.3 0h-4.7v9.3h4.7v-9.3zm9.3 0h-4.6v4.6h4.6v-4.6z" fill="#000"/><path d="M135 105.3h4.7v4.7h4.6v9.3h14v4.7h-18.6v9.3H135V124h-4.7v4.7h-4.6v4.6h4.6v4.7H107v-4.7h14V124h4.7v-14h9.3v-4.7zm-70 0V138h32.7v-32.7H65zm28 28H69.7V110H93v23.3zm28-23.3h-4.7v4.7h4.7V110z" fill="#000"/><path d="M158.3 110H149v4.7h9.3V110zm-70 4.7h-14v14h14v-14zm74.7 0h-4.7v4.6h4.7v-4.6zm-60.7 4.6h4.7v4.7h4.7v4.7h-9.4v-9.4zm18.7 0h-9.3v4.7h9.3v-4.7zm32.7 9.4H149v4.6h4.7v-4.6zm9.3 0h-4.7v4.6h4.7v-4.6zm-18.7 4.6h-4.6v4.7h4.6v-4.7z" fill="#000"/><path d="M320 82H188a5 5 0 01-5-5V45a5 5 0 015-5h132a5 5 0 015 5v32a5 5 0 01-5 5z" fill="#fff"/><path d="M324 77a4 4 0 01-4 4H188a4 4 0 01-4-4V45a4 4 0 014-4h132a4 4 0 014 4v32z" fill="#000"/><path d="M214.7 60.8c0-3.4 2.8-5 2.9-5.1a6.2 6.2 0 00-5-2.7c-2-.2-4 1.2-5 1.2-1.1 0-2.8-1.2-4.5-1.1a6.6 6.6 0 00-5.5 3.3c-2.4 4.1-.6 10.2 1.7 13.5 1.1 1.7 2.4 3.5 4.2 3.4 1.7 0 2.3-1 4.4-1 2 0 2.6 1 4.4 1 1.9 0 3-1.7 4.1-3.3 1.3-1.9 1.9-3.7 1.9-3.8 0 0-3.6-1.4-3.6-5.4zm-3.4-10a6 6 0 001.4-4.3c-1.3 0-3 1-4 2-.8 1-1.6 2.7-1.4 4.2a5 5 0 004-1.9zM239.4 73H237l-1.3-4h-4.5l-1.3 4h-2.3l4.5-13.9h2.8l4.5 14zm-4-5.7l-1.2-3.7-.8-2.6-.7 2.6-1.1 3.7h3.7zm15.6.7c0 1.6-.4 3-1.4 4a4 4 0 01-3 1.3c-1.4 0-2.4-.5-3-1.4v5.3h-2.2V66.3l-.1-3.3h2v1.6h.1a3.7 3.7 0 013.4-1.8c1.2 0 2.2.5 3 1.4.8 1 1.2 2.2 1.2 3.7zm-2.3 0c0-1-.2-1.8-.6-2.4-.5-.7-1.2-1-2-1-.5 0-1 .2-1.5.5-.4.4-.7.9-.9 1.5v2.3c0 .8.1 1.4.6 1.9.4.5 1 .7 1.8.7s1.5-.3 2-1c.4-.6.6-1.4.6-2.5zm13.9 0c0 1.6-.4 3-1.4 4a4 4 0 01-3 1.3c-1.4 0-2.3-.5-3-1.4v5.3H253V63h1.9l.1 1.6a3.7 3.7 0 013.4-1.8c1.2 0 2.2.5 3 1.4.8 1 1.2 2.2 1.2 3.7zm-2.3 0c0-1-.2-1.8-.6-2.4-.5-.7-1.2-1-2-1-.5 0-1 .2-1.5.5-.4.4-.7.9-.9 1.5v2.3c0 .8.2 1.4.6 1.9.5.5 1 .7 1.8.7s1.5-.3 2-1c.4-.6.6-1.4.6-2.5zm15.3 1.2a4 4 0 01-1.2 2.9c-1 .8-2.2 1.2-3.9 1.2-1.5 0-2.7-.3-3.6-.9l.5-1.9c1 .6 2.1 1 3.3 1a3 3 0 002-.6c.4-.4.7-1 .7-1.6 0-.5-.2-1-.6-1.4-.4-.4-1-.7-2-1-2.4-1-3.6-2.3-3.6-4 0-1.2.4-2.2 1.3-2.9a5 5 0 013.4-1.1c1.3 0 2.3.2 3.2.7l-.6 1.8a6 6 0 00-2.7-.7c-.8 0-1.4.2-1.8.6-.4.4-.6.8-.6 1.3s.2 1 .7 1.4c.3.3 1 .7 2 1 1.2.5 2 1 2.7 1.7.5.7.8 1.5.8 2.5zm7.4-4.5h-2.5v4.9c0 1.2.5 1.8 1.4 1.8h1V73a5 5 0 01-1.7.3c-1 0-1.6-.3-2.1-.8-.5-.6-.8-1.5-.8-2.7v-5.1H277V63h1.4v-1.8l2.2-.7V63h2.5v1.7zm11.2 3.3c0 1.5-.5 2.8-1.4 3.8-.9 1-2.1 1.5-3.7 1.5-1.4 0-2.6-.5-3.5-1.5-.9-1-1.3-2.2-1.3-3.7s.4-2.8 1.3-3.8c1-1 2.2-1.5 3.7-1.5s2.7.5 3.6 1.5c.8 1 1.3 2.2 1.3 3.7zm-2.4 0c0-.9-.2-1.7-.6-2.4a2.2 2.2 0 00-2-1.2c-.9 0-1.6.4-2 1.2-.4.7-.6 1.5-.6 2.5 0 .9.2 1.7.6 2.4.5.8 1.1 1.2 2 1.2.9 0 1.5-.4 2-1.3.4-.6.6-1.4.6-2.4zm9.7-3h-.7c-.8 0-1.4.2-1.9.8-.3.5-.5 1.2-.5 2V73H296V63h2v2c.3-.7.7-1.3 1.2-1.7.5-.3 1-.5 1.6-.5h.6V65zm10 2.6v1h-6.8a3 3 0 001 2.3c.5.4 1.3.7 2.2.7 1 0 1.9-.2 2.7-.5l.3 1.5c-1 .5-2 .7-3.4.7a5 5 0 01-3.6-1.4 5 5 0 01-1.4-3.7c0-1.5.4-2.8 1.3-3.8.8-1 2-1.6 3.5-1.6s2.6.5 3.3 1.6c.6.8.9 2 .9 3.2zm-2.1-.6a3 3 0 00-.5-1.7 2 2 0 00-1.8-1c-.7 0-1.3.3-1.8 1-.3.4-.6 1-.6 1.7h4.7zm-74.8-16.5c0 1.2-.4 2.2-1.1 2.8-.7.6-1.7.9-3 .9L229 54v-6.8l2-.1c1.1 0 2 .2 2.7.8.6.6 1 1.4 1 2.5zm-1.2 0c0-.8-.2-1.4-.6-1.8-.4-.4-1-.6-1.9-.6h-.9v5.2h.8c.8 0 1.5-.2 2-.7.4-.5.6-1.2.6-2zm7.4 1.1c0 .7-.3 1.4-.7 1.9-.5.5-1 .7-1.8.7-.7 0-1.3-.2-1.8-.7-.4-.5-.6-1.1-.6-1.8 0-.8.2-1.4.7-2 .4-.4 1-.6 1.8-.6.7 0 1.3.2 1.7.7.4.4.7 1 .7 1.8zm-1.2 0c0-.4 0-.8-.3-1.2a1 1 0 00-1-.5c-.4 0-.8.2-1 .5l-.3 1.2c0 .5.1.9.3 1.2.3.4.6.6 1 .6s.8-.2 1-.6c.2-.3.3-.7.3-1.2zm9.4-2.4l-1.5 4.9h-1l-.7-2.1-.4-1.6-.4 1.6-.7 2.1h-1l-1.5-5h1.2l.5 2.4.4 1.6.4-1.6.7-2.3h.9l.7 2.3.4 1.6.3-1.6.6-2.3h1.1zm5.7 4.9h-1v-2.8c0-.9-.4-1.3-1-1.3a1 1 0 00-.9.3c-.2.3-.3.5-.3.9V54h-1v-3.5l-.1-1.4h1v.7l.6-.6c.3-.2.6-.2 1-.2.5 0 .9.1 1.2.4.3.4.5 1 .5 1.6v3zm3.1 0h-1.1v-7.2h1V54zm6.5-2.5c0 .7-.3 1.4-.7 1.9-.4.5-1 .7-1.8.7-.7 0-1.3-.2-1.7-.7-.5-.5-.7-1.1-.7-1.8 0-.8.2-1.4.7-2 .4-.4 1-.6 1.8-.6.7 0 1.3.2 1.7.7.5.4.7 1 .7 1.8zm-1.2 0c0-.4 0-.8-.3-1.2a1 1 0 00-1-.5c-.4 0-.7.2-1 .5l-.3 1.2c0 .5.1.9.3 1.2.3.4.6.6 1 .6s.8-.2 1-.6c.2-.3.3-.7.3-1.2zm6.5 2.5h-1v-.6h-.1c-.3.5-.8.7-1.5.7-.4 0-.8-.1-1-.4-.3-.3-.5-.6-.5-1 0-.6.3-1.1.8-1.4a4 4 0 012.1-.5c0-.7-.3-1-1-1-.5 0-1 0-1.3.3l-.2-.7c.4-.3 1-.4 1.7-.4 1.3 0 2 .6 2 2v3zm-1.1-1.7v-.8c-1.3 0-1.9.4-1.9 1l.2.6.6.2c.2 0 .4 0 .7-.2a1 1 0 00.4-.8zm7.4 1.7h-1v-.8h-.1c-.3.6-.8 1-1.6 1-.6 0-1-.3-1.5-.8-.4-.5-.6-1-.6-1.8s.2-1.5.7-2a2 2 0 011.5-.6c.7 0 1.1.2 1.4.6V47h1.1v7zm-1.2-2v-1.3c0-.2-.2-.4-.4-.6a1 1 0 00-.7-.3c-.5 0-.8.2-1 .5-.3.3-.4.7-.4 1.3 0 .4.1.8.4 1.1.2.4.5.5 1 .5.3 0 .6-.1.8-.4.2-.2.3-.5.3-.9zm10.6-.5c0 .7-.2 1.4-.7 1.9-.4.5-1 .7-1.8.7-.7 0-1.3-.2-1.7-.7-.5-.5-.7-1.1-.7-1.8 0-.8.3-1.4.7-2 .4-.4 1-.6 1.8-.6.7 0 1.3.2 1.8.7.4.4.6 1 .6 1.8zm-1.2 0c0-.4 0-.8-.2-1.2a1 1 0 00-1-.5c-.5 0-.8.2-1 .5l-.3 1.2c0 .5 0 .9.3 1.2.2.4.5.6 1 .6.4 0 .7-.2 1-.6l.2-1.2zm7.1 2.5h-1v-2.8c0-.9-.4-1.3-1-1.3a1 1 0 00-.9.3c-.2.3-.3.5-.3.9V54h-1v-3.5l-.1-1.4h1v.7l.6-.6c.3-.2.6-.2 1-.2.5 0 .8.1 1.1.4.4.4.6 1 .6 1.6v3zm7.4-4.1h-1.2v2.4c0 .6.2.9.7.9h.5v.8l-.9.1c-.4 0-.7-.1-1-.4-.2-.3-.4-.7-.4-1.3V50h-.7v-.8h.7v-1l1.1-.3v1.3h1.2v.8zm5.9 4.1h-1.1v-2.8c0-.9-.4-1.3-1-1.3-.5 0-.9.2-1 .7l-.1.4v3h-1.1v-7.2h1v3c.4-.6 1-.8 1.6-.8.4 0 .8.1 1.1.4.4.4.6 1 .6 1.7V54zm6-2.7v.5H307c0 .5.2.9.5 1.1.3.2.7.4 1.1.4.5 0 1-.1 1.3-.3l.2.8c-.5.2-1 .3-1.6.3-.8 0-1.4-.2-1.9-.7-.4-.4-.6-1-.6-1.8 0-.7.2-1.4.6-1.9.4-.5 1-.8 1.7-.8s1.3.3 1.7.8c.2.5.4 1 .4 1.6zm-1-.3c0-.3-.1-.6-.3-.8a1 1 0 00-.9-.5 1 1 0 00-.8.5l-.4.8h2.3z" fill="#fff"/><path d="M319.7 138H188.3a5.3 5.3 0 01-5.3-5.3v-31.4c0-3 2.4-5.3 5.3-5.3h131.4c3 0 5.3 2.4 5.3 5.3v31.4c0 3-2.4 5.3-5.3 5.3z" fill="#000"/><path d="M319.7 96.8c2.5 0 4.5 2 4.5 4.5v31.5c0 2.4-2 4.4-4.5 4.4H188.3c-2.5 0-4.5-2-4.5-4.4v-31.6c0-2.4 2-4.4 4.5-4.4h131.4zm0-.8H188.3a5.3 5.3 0 00-5.3 5.3v31.5c0 2.8 2.4 5.2 5.3 5.2h131.4c3 0 5.3-2.4 5.3-5.3v-31.4c0-3-2.4-5.3-5.3-5.3z" fill="#fff"/><path d="M229.8 109.9c-1 0-1.8-.3-2.4-1-.7-.6-1-1.5-1-2.4 0-1 .3-1.8 1-2.4a3.4 3.4 0 013.7-.7c.4.2.8.4 1 .7l-.6.8v-.1a2 2 0 00-1.7-.7 2.3 2.3 0 00-2.4 2.4 2.3 2.3 0 002.4 2.4c.7 0 1.2-.2 1.7-.6.3-.3.4-.7.5-1.2h-2.3v-1h3.2v.7a3 3 0 01-.7 2.1c-.7.7-1.5 1-2.4 1zm8-.2H234v-6.4h3.8v1H235v1.7h2.6v1H235v1.8h3v1zm3.4 0h-1v-5.5h-1.7v-1h4.5v1h-1.8v5.5zm5.8 0h-1v-6.4h1v6.4zm3.5 0h-1v-5.5h-1.7v-1h4.5v1h-1.8v5.5zm7.6.2c-1 0-1.7-.4-2.4-1-.6-.7-1-1.5-1-2.4a3.3 3.3 0 013.4-3.4c1 0 1.7.4 2.4 1 .6.7 1 1.5 1 2.4a3.3 3.3 0 01-3.4 3.4zm-1.6-1.7c.4.5 1 .7 1.6.7.7 0 1.2-.2 1.7-.7.4-.4.6-1 .6-1.7s-.2-1.3-.6-1.8c-.5-.4-1-.6-1.7-.6-.6 0-1.2.2-1.6.6-.5.5-.7 1-.7 1.8 0 .7.2 1.3.7 1.8zm10.9 1.5h-1l-3-5v5h-1v-6.4h1.1l3 4.7v-4.7h1v6.4zm-12.7 9.1a4.4 4.4 0 00-4.5 4.5c0 2.6 2 4.5 4.5 4.5 2.4 0 4.5-2 4.5-4.5 0-2.6-2-4.5-4.5-4.5zm0 7.2c-1.4 0-2.6-1.1-2.6-2.7s1.2-2.7 2.6-2.7c1.3 0 2.5 1.1 2.5 2.7s-1.2 2.7-2.5 2.7zm-9.8-7.2a4.4 4.4 0 00-4.5 4.5c0 2.6 2 4.5 4.5 4.5 2.4 0 4.5-2 4.5-4.5 0-2.6-2-4.5-4.5-4.5zm0 7.2c-1.4 0-2.6-1.1-2.6-2.7s1.2-2.7 2.6-2.7c1.3 0 2.5 1.1 2.5 2.7s-1.2 2.7-2.5 2.7zm-11.7-5.8v2h4.6a4 4 0 01-1 2.3c-.7.6-1.8 1.4-3.6 1.4a5 5 0 01-5-5 5 5 0 018.4-3.8l1.4-1.3a7 7 0 00-11.8 5 7 7 0 007 7c2 0 3.6-.7 4.9-2 1.2-1.2 1.6-3 1.6-4.4v-1.2h-6.5zm47.7 1.5c-.4-1-1.5-2.9-3.9-2.9-2.3 0-4.2 1.9-4.2 4.5 0 2.5 2 4.5 4.5 4.5 2 0 3.2-1.3 3.7-2l-1.5-1c-.5.7-1.2 1.2-2.2 1.2-1 0-1.7-.4-2.2-1.3l6-2.5-.2-.5zm-6.1 1.5c0-1.8 1.3-2.6 2.3-2.6.8 0 1.5.4 1.7 1l-4 1.6zm-4.9 4.3h2v-13.1h-2v13.1zm-3.2-7.7c-.5-.5-1.4-1-2.4-1-2.3 0-4.3 2-4.3 4.5s2 4.5 4.3 4.5c1 0 1.9-.5 2.3-1v.6c0 1.7-.8 2.6-2.3 2.6-1.2 0-2-.8-2.3-1.6l-1.7.7a4.3 4.3 0 004 2.7c2.3 0 4.3-1.4 4.3-4.7v-8h-2v.7zm-2.3 6.2c-1.3 0-2.4-1.1-2.4-2.7s1-2.7 2.4-2.7 2.4 1.1 2.4 2.7-1 2.7-2.4 2.7zm25.7-11.6h-4.7v13.1h2v-5h2.7c2.2 0 4.3-1.5 4.3-4 0-2.6-2.1-4.1-4.3-4.1zm0 6.3h-2.8v-4.5h2.8c1.5 0 2.3 1.2 2.3 2.3 0 1-.8 2.2-2.3 2.2zm12.2-1.9c-1.5 0-3 .6-3.5 2l1.7.8c.4-.8 1-1 1.8-1 1 0 2 .6 2 1.7v.1c-.3-.2-1-.5-2-.5-1.9 0-3.8 1-3.8 3 0 1.7 1.6 2.8 3.3 2.8 1.3 0 2-.5 2.5-1.2v1h2v-5c0-2.4-1.8-3.7-4-3.7zm-.3 7.2c-.6 0-1.5-.3-1.5-1.1 0-1 1.1-1.4 2-1.4 1 0 1.3.2 1.9.4-.2 1.2-1.2 2.1-2.4 2.1zm11.2-6.9l-2.3 5.7-2.4-5.7h-2.1l3.5 8-2 4.4h2l5.4-12.4h-2.1zm-17.7 8.4h2v-13.1h-2v13.1z" fill="#fff"/><path d="M194 104a2 2 0 00-.5 1.4v23.2c0 .7.2 1.2.5 1.5l13-13v-.3l-13-13v.1z" fill="url(#paint0_linear)"/><path d="M211.4 121.5l-4.3-4.3v-.4l4.3-4.3h.1l5.2 3c1.4.8 1.4 2.2 0 3l-5.2 3z" fill="url(#paint1_linear)"/><path d="M211.5 121.4l-4.4-4.4-13.1 13c.5.6 1.3.7 2.2.2l15.3-8.8z" fill="url(#paint2_linear)"/><path d="M211.5 112.6l-15.3-8.8c-1-.5-1.7-.4-2.2.1l13 13.1 4.5-4.4z" fill="url(#paint3_linear)"/><defs><linearGradient id="paint0_linear" x1="205.9" y1="128.9" x2="188.3" y2="111.2" gradientUnits="userSpaceOnUse"><stop stop-color="#00A0FF"/><stop offset="0" stop-color="#00A1FF"/><stop offset=".3" stop-color="#00BEFF"/><stop offset=".5" stop-color="#00D2FF"/><stop offset=".8" stop-color="#00DFFF"/><stop offset="1" stop-color="#00E3FF"/></linearGradient><linearGradient id="paint1_linear" x1="218.6" y1="117" x2="193.1" y2="117" gradientUnits="userSpaceOnUse"><stop stop-color="#FFE000"/><stop offset=".4" stop-color="#FFBD00"/><stop offset=".8" stop-color="orange"/><stop offset="1" stop-color="#FF9C00"/></linearGradient><linearGradient id="paint2_linear" x1="200.3" y1="123.3" x2="176.4" y2="99.4" gradientUnits="userSpaceOnUse"><stop stop-color="#FF3A44"/><stop offset="1" stop-color="#C31162"/></linearGradient><linearGradient id="paint3_linear" x1="181.9" y1="129.1" x2="192.6" y2="118.4" gradientUnits="userSpaceOnUse"><stop stop-color="#32A071"/><stop offset=".1" stop-color="#2DA771"/><stop offset=".5" stop-color="#15CF74"/><stop offset=".8" stop-color="#06E775"/><stop offset="1" stop-color="#00F076"/></linearGradient><filter id="filter0_d" x="0" y="0" width="390" height="228" filterUnits="userSpaceOnUse" color-interpolation-filters="sRGB"><feFlood flood-opacity="0" result="BackgroundImageFix"/><feColorMatrix in="SourceAlpha" values="0 0 0 0 0 0 0 0 0 0 0 0 0 0 0 0 0 0 127 0"/><feOffset dy="25"/><feGaussianBlur stdDeviation="25"/><feColorMatrix values="0 0 0 0 0 0 0 0 0 0 0 0 0 0 0 0 0 0 0.25 0"/><feBlend in2="BackgroundImageFix" result="effect1_dropShadow"/><feBlend in="SourceGraphic" in2="effect1_dropShadow" result="shape"/></filter></defs></svg>