<?xml version="1.0" standalone="no"?>
<!DOCTYPE svg PUBLIC "-//W3C//DTD SVG 20010904//EN"
 "http://www.w3.org/TR/2001/REC-SVG-20010904/DTD/svg10.dtd">
<svg version="1.0" xmlns="http://www.w3.org/2000/svg"
 width="251.000000pt" height="251.000000pt" viewBox="0 0 251.000000 251.000000"
 preserveAspectRatio="xMidYMid meet">
<metadata>
Created by potrace 1.11, written by Peter Selinger 2001-2013
</metadata>
<g transform="translate(0.000000,251.000000) scale(0.100000,-0.100000)"
fill="#000000" stroke="none">
<path d="M1159 2279 c-245 -319 -317 -463 -319 -640 l0 -37 -77 34 c-81 35
-235 79 -313 89 -25 3 -52 8 -60 10 -8 2 -42 6 -75 10 -33 4 -89 10 -125 14
-36 5 -67 7 -69 5 -2 -2 8 -68 22 -146 15 -79 29 -158 32 -175 26 -156 49
-246 80 -308 32 -68 107 -156 160 -191 31 -20 32 -31 3 -40 -52 -16 -195 -114
-301 -206 -121 -106 -118 -98 -59 -140 228 -161 360 -238 440 -256 64 -15 139
-6 237 27 49 17 93 31 96 31 3 0 5 -54 3 -121 -2 -100 0 -120 11 -115 8 3 67
19 132 36 65 17 137 42 160 55 42 25 91 80 109 125 l11 25 17 -32 c25 -50 75
-102 118 -124 22 -11 88 -33 147 -48 59 -16 116 -31 127 -35 19 -6 20 -2 19
114 -1 66 1 120 5 120 3 0 46 -14 95 -31 178 -62 263 -44 495 104 52 34 97 64
100 67 3 3 33 26 67 51 70 51 71 44 -8 114 -126 113 -219 179 -321 231 -48 24
-50 27 -31 38 38 20 104 87 143 143 56 79 73 138 120 408 5 28 12 62 15 78 7
38 26 147 32 179 3 23 1 26 -19 23 -13 -2 -50 -6 -83 -10 -103 -11 -241 -31
-290 -42 -11 -2 -31 -6 -45 -9 -62 -13 -141 -39 -207 -70 -40 -18 -73 -32 -73
-31 -1 1 -3 31 -5 67 -2 36 -6 74 -9 85 -16 70 -89 225 -132 282 -13 17 -24
34 -24 38 0 3 -5 11 -10 18 -6 7 -46 59 -90 117 -43 58 -96 125 -117 149 l-38
43 -96 -123z"/>
</g>
</svg>
