<svg width="152" height="44" viewBox="0 0 152 44" fill="none" xmlns="http://www.w3.org/2000/svg">
<path d="M152 39.5894C152 42.0262 150.043 44 147.623 44H4.38275C1.96362 44 0 42.0262 0 39.5894V4.41635C0 1.98074 1.96362 0 4.38275 0H147.622C150.043 0 151.999 1.98074 151.999 4.41635L152 39.5894Z" fill="black"/>
<path d="M33.3872 21.759C33.3541 18.0475 36.4 16.2418 36.5393 16.1577C34.8143 13.6207 32.1406 13.2741 31.201 13.2465C28.9554 13.0081 26.7772 14.6019 25.6332 14.6019C24.4665 14.6019 22.7049 13.2695 20.8064 13.3087C18.3633 13.3467 16.0777 14.7735 14.8242 16.9891C12.2373 21.5068 14.1666 28.1458 16.6451 31.7975C17.8849 33.5859 19.3337 35.5827 21.2299 35.5125C23.0851 35.4353 23.7781 34.3194 26.0168 34.3194C28.235 34.3194 28.8858 35.5125 30.8197 35.4676C32.8107 35.4353 34.0642 33.6711 35.2607 31.8666C36.6934 29.8167 37.2688 27.798 37.2917 27.6943C37.2448 27.6782 33.4249 26.2076 33.3872 21.759Z" fill="white"/>
<path d="M29.7349 10.8441C30.7327 9.58542 31.4154 7.87301 31.2259 6.13525C29.7818 6.19974 27.9757 7.1429 26.9357 8.37395C26.0155 9.45875 25.1935 11.2368 25.4059 12.9089C27.0281 13.031 28.6938 12.0832 29.7349 10.8441Z" fill="white"/>
<path d="M60.2306 35.2556H57.6379L56.2177 30.754H51.2813L49.9285 35.2556H47.4043L52.2951 19.9302H55.3158L60.2306 35.2556ZM55.7896 28.8654L54.5053 24.8636C54.3694 24.4548 54.1148 23.492 53.7392 21.9766H53.6936C53.544 22.6284 53.3031 23.5911 52.9721 24.8636L51.7106 28.8654H55.7896V28.8654Z" fill="white"/>
<path d="M72.8096 29.5929C72.8096 31.4723 72.3062 32.9578 71.2993 34.0484C70.3974 35.0192 69.2774 35.504 67.9406 35.504C66.4975 35.504 65.4609 34.9812 64.8296 33.9355H64.7839V39.7568H62.35V27.8413C62.35 26.6598 62.3191 25.4471 62.2598 24.2034H64.4003L64.5362 25.955H64.5819C65.3936 24.6353 66.6254 23.9766 68.2785 23.9766C69.5708 23.9766 70.6497 24.4913 71.5127 25.522C72.3781 26.5538 72.8096 27.9104 72.8096 29.5929ZM70.33 29.6827C70.33 28.6071 70.0903 27.7204 69.6085 27.0225C69.0822 26.2947 68.3755 25.9308 67.4896 25.9308C66.8891 25.9308 66.3434 26.1335 65.8559 26.5331C65.3673 26.9362 65.0476 27.4624 64.8981 28.1142C64.8227 28.4183 64.7851 28.667 64.7851 28.8628V30.7053C64.7851 31.5091 65.0294 32.1874 65.518 32.7413C66.0066 33.2952 66.6414 33.5716 67.4223 33.5716C68.339 33.5716 69.0525 33.2146 69.5628 32.5029C70.0743 31.7901 70.33 30.8504 70.33 29.6827Z" fill="white"/>
<path d="M85.4062 29.5929C85.4062 31.4723 84.9027 32.9578 83.8946 34.0484C82.9939 35.0192 81.8739 35.504 80.5371 35.504C79.094 35.504 78.0574 34.9812 77.4272 33.9355H77.3816V39.7568H74.9476V27.8413C74.9476 26.6598 74.9168 25.4471 74.8574 24.2034H76.998L77.1339 25.955H77.1795C77.9901 24.6353 79.2219 23.9766 80.8761 23.9766C82.1673 23.9766 83.2462 24.4913 84.1115 25.522C84.9735 26.5538 85.4062 27.9104 85.4062 29.5929ZM82.9265 29.6827C82.9265 28.6071 82.6856 27.7204 82.2039 27.0225C81.6776 26.2947 80.9732 25.9308 80.0861 25.9308C79.4845 25.9308 78.9399 26.1335 78.4513 26.5331C77.9627 26.9362 77.6442 27.4624 77.4946 28.1142C77.4204 28.4183 77.3816 28.667 77.3816 28.8628V30.7053C77.3816 31.5091 77.6259 32.1874 78.1122 32.7413C78.6009 33.2941 79.2356 33.5716 80.0188 33.5716C80.9355 33.5716 81.649 33.2146 82.1593 32.5029C82.6708 31.7901 82.9265 30.8504 82.9265 29.6827Z" fill="white"/>
<path d="M99.4928 30.9573C99.4928 32.2609 99.0441 33.3215 98.1433 34.1403C97.1535 35.0351 95.7756 35.4819 94.0049 35.4819C92.3701 35.4819 91.0595 35.164 90.0674 34.5272L90.6314 32.4808C91.6999 33.1326 92.8724 33.4597 94.1499 33.4597C95.0666 33.4597 95.7801 33.2501 96.2927 32.8332C96.8031 32.4163 97.0576 31.8567 97.0576 31.1588C97.0576 30.5369 96.8476 30.013 96.4263 29.588C96.0073 29.1631 95.3075 28.7681 94.3303 28.403C91.6702 27.4023 90.3414 25.9363 90.3414 24.0086C90.3414 22.7487 90.8072 21.7158 91.7399 20.9119C92.6692 20.107 93.909 19.7051 95.4593 19.7051C96.8419 19.7051 97.9904 19.9481 98.9071 20.4329L98.2986 22.4344C97.4424 21.9645 96.4743 21.7296 95.3908 21.7296C94.5346 21.7296 93.8656 21.9426 93.3861 22.3664C92.9808 22.7453 92.7776 23.2071 92.7776 23.7541C92.7776 24.3598 93.0094 24.8608 93.4752 25.2546C93.8805 25.6185 94.6168 26.0123 95.6854 26.4373C96.9926 26.9682 97.9527 27.5889 98.5703 28.3006C99.1857 29.0099 99.4928 29.8978 99.4928 30.9573Z" fill="white"/>
<path d="M107.543 26.0472H104.86V31.4124C104.86 32.7771 105.333 33.4588 106.28 33.4588C106.715 33.4588 107.076 33.4208 107.361 33.3448L107.429 35.2092C106.949 35.39 106.318 35.481 105.536 35.481C104.575 35.481 103.823 35.1851 103.281 34.5943C102.741 34.0024 102.469 33.0097 102.469 31.6151V26.0449H100.871V24.2023H102.469V22.179L104.86 21.4512V24.2023H107.543V26.0472Z" fill="white"/>
<path d="M119.644 29.6381C119.644 31.3367 119.163 32.7313 118.201 33.8218C117.193 34.9446 115.855 35.5043 114.187 35.5043C112.58 35.5043 111.3 34.9665 110.346 33.8909C109.391 32.8153 108.914 31.4576 108.914 29.8212C108.914 28.1088 109.405 26.7061 110.39 25.6156C111.373 24.5239 112.7 23.978 114.368 23.978C115.975 23.978 117.269 24.5158 118.245 25.5926C119.179 26.6371 119.644 27.9856 119.644 29.6381ZM117.119 29.7176C117.119 28.6984 116.903 27.8243 116.466 27.0954C115.956 26.2133 115.226 25.7734 114.281 25.7734C113.303 25.7734 112.559 26.2144 112.049 27.0954C111.612 27.8255 111.396 28.7134 111.396 29.7636C111.396 30.7828 111.612 31.6568 112.049 32.3846C112.575 33.2668 113.311 33.7067 114.259 33.7067C115.189 33.7067 115.918 33.2576 116.444 32.3616C116.893 31.6188 117.119 30.7356 117.119 29.7176Z" fill="white"/>
<path d="M127.558 26.3627C127.318 26.3177 127.061 26.2947 126.791 26.2947C125.935 26.2947 125.273 26.6206 124.807 27.2736C124.402 27.8494 124.199 28.5772 124.199 29.4558V35.2541H121.766L121.789 27.6835C121.789 26.4099 121.758 25.2502 121.697 24.2046H123.817L123.906 26.3189H123.974C124.231 25.5922 124.636 25.0072 125.191 24.5685C125.733 24.1735 126.319 23.9766 126.95 23.9766C127.175 23.9766 127.378 23.9927 127.558 24.0215V26.3627Z" fill="white"/>
<path d="M138.443 29.2066C138.443 29.6466 138.414 30.0174 138.354 30.3202H131.052C131.08 31.4119 131.433 32.2468 132.111 32.8226C132.727 33.3374 133.522 33.5954 134.5 33.5954C135.581 33.5954 136.567 33.4215 137.454 33.0725L137.836 34.7769C136.799 35.2329 135.575 35.4598 134.163 35.4598C132.464 35.4598 131.131 34.9554 130.16 33.9477C129.192 32.9401 128.707 31.587 128.707 29.8895C128.707 28.2232 129.158 26.8355 130.061 25.7288C131.006 24.5473 132.284 23.9565 133.891 23.9565C135.47 23.9565 136.665 24.5473 137.477 25.7288C138.12 26.6674 138.443 27.8282 138.443 29.2066ZM136.122 28.5698C136.138 27.842 135.979 27.2132 135.649 26.6824C135.228 25.9995 134.581 25.6586 133.71 25.6586C132.914 25.6586 132.267 25.9914 131.772 26.6593C131.367 27.1902 131.126 27.827 131.052 28.5687H136.122V28.5698Z" fill="white"/>
<path d="M54.9848 10.5009C54.9848 11.8563 54.5818 12.8766 53.7769 13.5618C53.0314 14.194 51.972 14.5107 50.5997 14.5107C49.9193 14.5107 49.3371 14.4808 48.8496 14.4209V7.01501C49.4855 6.91137 50.1705 6.8584 50.9103 6.8584C52.2174 6.8584 53.2027 7.14514 53.8671 7.71864C54.6115 8.36698 54.9848 9.29401 54.9848 10.5009ZM53.7233 10.5343C53.7233 9.65561 53.4927 8.98193 53.0314 8.51208C52.5702 8.04339 51.8966 7.80846 51.0096 7.80846C50.6329 7.80846 50.312 7.8338 50.046 7.88677V13.5169C50.1933 13.5399 50.4627 13.5503 50.8543 13.5503C51.7699 13.5503 52.4766 13.2935 52.9744 12.7799C53.4721 12.2663 53.7233 11.5177 53.7233 10.5343Z" fill="white"/>
<path d="M61.6733 11.6847C61.6733 12.5196 61.437 13.2037 60.9643 13.7403C60.4689 14.2919 59.8124 14.5672 58.9927 14.5672C58.2027 14.5672 57.5737 14.3034 57.1045 13.7737C56.6364 13.2451 56.4023 12.5784 56.4023 11.7746C56.4023 10.9339 56.6432 10.2441 57.1273 9.7086C57.6113 9.17311 58.2621 8.90479 59.0818 8.90479C59.8718 8.90479 60.5065 9.1685 60.9872 9.69708C61.4438 10.2107 61.6733 10.874 61.6733 11.6847ZM60.4323 11.7239C60.4323 11.2229 60.325 10.7934 60.1115 10.4352C59.8604 10.0023 59.503 9.78575 59.0384 9.78575C58.5578 9.78575 58.1924 10.0023 57.9413 10.4352C57.7266 10.7934 57.6205 11.2298 57.6205 11.7458C57.6205 12.2467 57.7278 12.6762 57.9413 13.0344C58.2004 13.4674 58.5612 13.6839 59.027 13.6839C59.4836 13.6839 59.8421 13.4639 60.1001 13.0229C60.3216 12.6578 60.4323 12.2248 60.4323 11.7239Z" fill="white"/>
<path d="M70.645 9.01611L68.9611 14.4447H67.8652L67.1676 12.0874C66.9907 11.4989 66.8468 10.9139 66.7349 10.3335H66.7132C66.6094 10.9301 66.4655 11.5139 66.2806 12.0874L65.5396 14.4447H64.4311L62.8477 9.01611H64.0772L64.6857 11.5968C64.833 12.2072 64.954 12.7887 65.051 13.3392H65.0727C65.1618 12.8855 65.309 12.3074 65.5168 11.6083L66.2806 9.01727H67.2555L67.9873 11.5531C68.1643 12.1715 68.3081 12.7668 68.4188 13.3403H68.452C68.533 12.7818 68.6552 12.1864 68.8173 11.5531L69.4703 9.01727H70.645V9.01611Z" fill="white"/>
<path d="M76.8461 14.444H75.6497V11.3347C75.6497 10.3766 75.289 9.89749 74.5652 9.89749C74.2101 9.89749 73.9236 10.0288 73.7009 10.2925C73.4806 10.5562 73.3687 10.8671 73.3687 11.223V14.4428H72.1723V10.5666C72.1723 10.0898 72.1574 9.57275 72.1289 9.01307H73.1804L73.2363 9.8618H73.2694C73.4087 9.59808 73.6165 9.38043 73.8893 9.20654C74.2135 9.00386 74.5766 8.90137 74.9739 8.90137C75.4762 8.90137 75.894 9.06489 76.2262 9.3931C76.6395 9.795 76.8461 10.395 76.8461 11.1919V14.444V14.444Z" fill="white"/>
<path d="M80.141 14.4439H78.9463V6.52441H80.141V14.4439Z" fill="white"/>
<path d="M87.187 11.6847C87.187 12.5196 86.9506 13.2037 86.478 13.7403C85.9825 14.2919 85.325 14.5672 84.5064 14.5672C83.7152 14.5672 83.0862 14.3034 82.6181 13.7737C82.15 13.2451 81.916 12.5784 81.916 11.7746C81.916 10.9339 82.1569 10.2441 82.641 9.7086C83.125 9.17311 83.7757 8.90479 84.5943 8.90479C85.3855 8.90479 86.0191 9.1685 86.5008 9.69708C86.9575 10.2107 87.187 10.874 87.187 11.6847ZM85.9449 11.7239C85.9449 11.2229 85.8375 10.7934 85.6241 10.4352C85.374 10.0023 85.0156 9.78575 84.5521 9.78575C84.0703 9.78575 83.705 10.0023 83.4549 10.4352C83.2403 10.7934 83.1341 11.2298 83.1341 11.7458C83.1341 12.2467 83.2415 12.6762 83.4549 13.0344C83.7141 13.4674 84.0749 13.6839 84.5406 13.6839C84.9973 13.6839 85.3546 13.4639 85.6126 13.0229C85.8353 12.6578 85.9449 12.2248 85.9449 11.7239Z" fill="white"/>
<path d="M92.9806 14.4439H91.9064L91.8173 13.8186H91.7842C91.4166 14.3173 90.8926 14.5672 90.2122 14.5672C89.7041 14.5672 89.2932 14.4025 88.9838 14.0754C88.7029 13.7783 88.5625 13.4087 88.5625 12.9699C88.5625 12.3066 88.8365 11.801 89.3879 11.451C89.9382 11.1009 90.7122 10.9293 91.7089 10.9373V10.836C91.7089 10.1209 91.3367 9.76387 90.5912 9.76387C90.0603 9.76387 89.5923 9.89861 89.1881 10.1658L88.9449 9.37348C89.445 9.0614 90.0626 8.90479 90.791 8.90479C92.1975 8.90479 92.903 9.65332 92.903 11.1504V13.1496C92.903 13.692 92.9293 14.1238 92.9806 14.4439ZM91.7385 12.5784V11.7412C90.4188 11.7181 89.7589 12.0832 89.7589 12.8352C89.7589 13.1185 89.8343 13.3304 89.9884 13.472C90.1425 13.6136 90.3389 13.6839 90.5729 13.6839C90.8355 13.6839 91.081 13.5998 91.3047 13.4328C91.5296 13.2647 91.6678 13.0517 91.7191 12.7903C91.7317 12.7315 91.7385 12.6601 91.7385 12.5784Z" fill="white"/>
<path d="M99.7751 14.4439H98.7133L98.6574 13.5722H98.6243C98.2852 14.2355 97.7076 14.5671 96.8959 14.5671C96.2474 14.5671 95.7074 14.3103 95.2793 13.7967C94.8512 13.2831 94.6377 12.6163 94.6377 11.7976C94.6377 10.9189 94.8694 10.2072 95.3352 9.66365C95.7862 9.15695 96.3387 8.9036 96.9963 8.9036C97.719 8.9036 98.2247 9.14889 98.5124 9.64062H98.5352V6.52441H99.7328V12.9814C99.7328 13.51 99.7465 13.9971 99.7751 14.4439ZM98.5352 12.1545V11.2494C98.5352 11.0928 98.5238 10.9661 98.5021 10.8694C98.4348 10.5792 98.2898 10.335 98.0695 10.1381C97.8468 9.94119 97.5785 9.84215 97.2692 9.84215C96.8228 9.84215 96.4734 10.0206 96.2166 10.3788C95.962 10.7369 95.833 11.1941 95.833 11.7526C95.833 12.2893 95.9551 12.7246 96.2006 13.0597C96.4597 13.4167 96.8091 13.5952 97.2463 13.5952C97.6391 13.5952 97.953 13.4466 98.1916 13.1484C98.4222 12.8731 98.5352 12.5415 98.5352 12.1545Z" fill="white"/>
<path d="M110.011 11.6847C110.011 12.5196 109.775 13.2037 109.302 13.7403C108.807 14.2919 108.151 14.5672 107.331 14.5672C106.542 14.5672 105.913 14.3034 105.442 13.7737C104.974 13.2451 104.74 12.5784 104.74 11.7746C104.74 10.9339 104.981 10.2441 105.465 9.7086C105.949 9.17311 106.6 8.90479 107.421 8.90479C108.21 8.90479 108.846 9.1685 109.325 9.69708C109.782 10.2107 110.011 10.874 110.011 11.6847ZM108.771 11.7239C108.771 11.2229 108.664 10.7934 108.451 10.4352C108.198 10.0023 107.842 9.78575 107.376 9.78575C106.897 9.78575 106.531 10.0023 106.279 10.4352C106.065 10.7934 105.958 11.2298 105.958 11.7458C105.958 12.2467 106.066 12.6762 106.279 13.0344C106.538 13.4674 106.899 13.6839 107.365 13.6839C107.822 13.6839 108.181 13.4639 108.439 13.0229C108.659 12.6578 108.771 12.2248 108.771 11.7239Z" fill="white"/>
<path d="M116.441 14.444H115.245V11.3347C115.245 10.3766 114.885 9.89749 114.16 9.89749C113.805 9.89749 113.518 10.0288 113.297 10.2925C113.075 10.5562 112.964 10.8671 112.964 11.223V14.4428H111.767V10.5666C111.767 10.0898 111.753 9.57275 111.725 9.01307H112.775L112.831 9.8618H112.864C113.004 9.59808 113.212 9.38043 113.484 9.20654C113.809 9.00386 114.171 8.90137 114.57 8.90137C115.071 8.90137 115.489 9.06489 115.821 9.3931C116.235 9.795 116.441 10.395 116.441 11.1919V14.444V14.444Z" fill="white"/>
<path d="M124.494 9.91954H123.177V12.5567C123.177 13.2269 123.411 13.562 123.875 13.562C124.089 13.562 124.267 13.5436 124.408 13.5056L124.438 14.4211C124.202 14.5109 123.892 14.5558 123.509 14.5558C123.037 14.5558 122.669 14.4107 122.403 14.1205C122.136 13.8303 122.003 13.3421 122.003 12.6569V9.91954H121.217V9.01554H122.003V8.02057L123.176 7.66357V9.01439H124.493V9.91954H124.494Z" fill="white"/>
<path d="M130.824 14.4439H129.627V11.3576C129.627 10.3845 129.266 9.89742 128.543 9.89742C127.988 9.89742 127.609 10.1796 127.402 10.7438C127.366 10.8625 127.346 11.0076 127.346 11.178V14.4428H126.15V6.52441H127.346V9.79609H127.369C127.745 9.20071 128.285 8.9036 128.985 8.9036C129.481 8.9036 129.89 9.06713 130.216 9.39533C130.621 9.80415 130.824 10.4122 130.824 11.216V14.4439V14.4439Z" fill="white"/>
<path d="M137.361 11.4729C137.361 11.6894 137.345 11.8714 137.316 12.0199H133.728C133.744 12.5566 133.915 12.9654 134.248 13.2487C134.551 13.502 134.943 13.6287 135.422 13.6287C135.953 13.6287 136.437 13.5435 136.873 13.3719L137.061 14.2103C136.55 14.4337 135.95 14.5454 135.254 14.5454C134.421 14.5454 133.765 14.2978 133.29 13.8026C132.812 13.3074 132.576 12.643 132.576 11.8092C132.576 10.9904 132.797 10.3087 133.241 9.76513C133.704 9.18473 134.331 8.89453 135.122 8.89453C135.896 8.89453 136.484 9.18473 136.881 9.76513C137.202 10.2258 137.361 10.7958 137.361 11.4729ZM136.219 11.1609C136.228 10.8027 136.149 10.4941 135.987 10.2338C135.78 9.89872 135.463 9.73059 135.035 9.73059C134.645 9.73059 134.326 9.89411 134.083 10.2223C133.884 10.4837 133.767 10.7958 133.728 11.1609H136.219Z" fill="white"/>
</svg>
