<svg xmlns="http://www.w3.org/2000/svg" viewBox="0 0 98 94"><title>cat-stocks_icon</title><rect width="94" height="94" rx="6" ry="6" style="fill:#00408a"/><rect x="4" width="94" height="94" rx="6" ry="6" style="fill:#07f"/><path d="M68,53V38a21,21,0,0,0-42,0V53a3,3,0,0,0,0,6H44v3a3,3,0,0,0,6,0V59H68a3,3,0,0,0,0-6Zm-6,0H32V38a15,15,0,0,1,30,0Z" style="fill:#00408a"/><path d="M47,29a8.84,8.84,0,0,0-9,8.68V38a3,3,0,0,0,6,0,2.83,2.83,0,0,1,2.65-3H47a2.83,2.83,0,0,0,3-2.65A2,2,0,0,0,50,32a2.83,2.83,0,0,0-2.65-3A2,2,0,0,0,47,29Z" style="fill:#00408a"/><path d="M53,65a2.83,2.83,0,0,0-3,2.65A2,2,0,0,0,50,68a3,3,0,0,1-6,0,3,3,0,0,0-6,0,9,9,0,0,0,18,0,2.83,2.83,0,0,0-2.65-3A2,2,0,0,0,53,65Z" style="fill:#00408a"/><path d="M72,53V38a21,21,0,0,0-42,0V53a3,3,0,0,0,0,6H48v3a3,3,0,0,0,6,0V59H72a3,3,0,0,0,0-6Zm-6,0H36V38a15,15,0,0,1,30,0Z" style="fill:#fff"/><path d="M51,29a8.84,8.84,0,0,0-9,8.68V38a3,3,0,0,0,6,0,2.83,2.83,0,0,1,2.65-3H51a2.83,2.83,0,0,0,3-2.65A2,2,0,0,0,54,32a2.83,2.83,0,0,0-2.65-3A2,2,0,0,0,51,29Z" style="fill:#fff"/><path d="M57,65a2.83,2.83,0,0,0-3,2.65A2,2,0,0,0,54,68a3,3,0,0,1-6,0,3,3,0,0,0-6,0,9,9,0,0,0,18,0,2.83,2.83,0,0,0-2.65-3A2,2,0,0,0,57,65Z" style="fill:#fff"/></svg>