<svg xmlns="http://www.w3.org/2000/svg" viewBox="0 0 98 94"><title>cat-info_icon</title><rect width="94" height="94" rx="6" ry="6" style="fill:#00408a"/><rect x="4" width="94" height="94" rx="6" ry="6" style="fill:#07f"/><path d="M115.1,34.9l-15-15A2.72,2.72,0,0,0,98,19H65a2.83,2.83,0,0,0-3,3V76a2.83,2.83,0,0,0,3,3h48a2.83,2.83,0,0,0,3-3V37A2.72,2.72,0,0,0,115.1,34.9ZM101,29.2l4.8,4.8H101ZM110,73H68V25H95V37a2.83,2.83,0,0,0,3,3h12Z" transform="translate(-44)" style="fill:#00408a"/><path d="M101,61H77a3,3,0,0,0,0,6h24a3,3,0,0,0,0-6Z" transform="translate(-44)" style="fill:#00408a"/><path d="M74,49a2.83,2.83,0,0,0,3,3h24a3,3,0,0,0,0-6H77A3,3,0,0,0,74,49Z" transform="translate(-44)" style="fill:#00408a"/><path d="M77,37h9a2.83,2.83,0,0,0,3-3,2.83,2.83,0,0,0-3-3H77a3,3,0,0,0,0,6Z" transform="translate(-44)" style="fill:#00408a"/><path d="M119.1,34.9l-15-15A2.72,2.72,0,0,0,102,19H69a2.83,2.83,0,0,0-3,3V76a2.83,2.83,0,0,0,3,3h48a2.83,2.83,0,0,0,3-3V37A2.72,2.72,0,0,0,119.1,34.9ZM105,29.2l4.8,4.8H105ZM114,73H72V25H99V37a2.83,2.83,0,0,0,3,3h12Z" transform="translate(-44)" style="fill:#fff"/><path d="M105,61H81a3,3,0,0,0,0,6h24a3,3,0,0,0,0-6Z" transform="translate(-44)" style="fill:#fff"/><path d="M78,49a2.83,2.83,0,0,0,3,3h24a3,3,0,0,0,0-6H81A3,3,0,0,0,78,49Z" transform="translate(-44)" style="fill:#fff"/><path d="M81,37h9a2.83,2.83,0,0,0,3-3,2.83,2.83,0,0,0-3-3H81a3,3,0,0,0,0,6Z" transform="translate(-44)" style="fill:#fff"/></svg>