<svg xmlns="http://www.w3.org/2000/svg" viewBox="0 0 98 94"><title>cat-it-iInfrastructure_icon</title><rect width="94" height="94" rx="6" ry="6" style="fill:#00408a"/><rect x="4" width="94" height="94" rx="6" ry="6" style="fill:#07f"/><path d="M103,26a9,9,0,1,1,12,8.49v25a9,9,0,1,1-6,0V50H99.49a9,9,0,0,1-17,0H73v9.51a9,9,0,1,1-6,0v-25a9,9,0,1,1,6,0V44h9.51a9,9,0,0,1,17,0H109V34.49A9,9,0,0,1,103,26ZM70,29a3,3,0,1,0-3-3A3,3,0,0,0,70,29Zm39,39a3,3,0,1,1,3,3A3,3,0,0,1,109,68ZM91,50a3,3,0,1,0-3-3A3,3,0,0,0,91,50Z" transform="translate(-44)" style="fill:#00408a"/><path d="M107,26a9,9,0,1,1,12,8.49v25a9,9,0,1,1-6,0V50h-9.51a9,9,0,0,1-17,0H77v9.51a9,9,0,1,1-6,0v-25a9,9,0,1,1,6,0V44h9.51a9,9,0,0,1,17,0H113V34.49A9,9,0,0,1,107,26ZM74,29a3,3,0,1,0-3-3A3,3,0,0,0,74,29Zm39,39a3,3,0,1,1,3,3A3,3,0,0,1,113,68ZM95,50a3,3,0,1,0-3-3A3,3,0,0,0,95,50Z" transform="translate(-44)" style="fill:#fff"/></svg>