<svg width="152" height="44" viewBox="0 0 152 44" fill="none" xmlns="http://www.w3.org/2000/svg">
<path d="M146.371 44H5.62909C2.53474 44 0 41.5244 0 38.5008V5.50049C0 2.47691 2.53474 0 5.62909 0H146.371C149.465 0 152 2.47691 152 5.50049V38.5008C152.001 41.5244 149.467 44 146.371 44Z" fill="black"/>
<path d="M50.0661 14.5374C49.0746 14.5374 48.2187 14.1964 47.5195 13.5234C46.8216 12.844 46.4688 11.9954 46.4688 10.9996C46.4688 10.0026 46.823 9.15529 47.5195 8.48106C48.2161 7.80553 49.0733 7.46191 50.0661 7.46191C50.548 7.46191 51.026 7.55823 51.4869 7.74826C51.9438 7.9383 52.3098 8.19471 52.5771 8.5084L52.6298 8.57087L51.9148 9.27634L51.8516 9.20345C51.4145 8.69973 50.8311 8.45633 50.0661 8.45633C49.3827 8.45633 48.7823 8.69322 48.2819 9.1618C47.7855 9.63167 47.534 10.2499 47.534 10.9996C47.534 11.7533 47.7855 12.3728 48.2819 12.8427C48.7875 13.31 49.3893 13.5469 50.0661 13.5469C50.7943 13.5469 51.4066 13.3087 51.8898 12.8375C52.1861 12.5459 52.3599 12.1581 52.4191 11.6517H49.9766V10.6795H53.4093L53.4251 10.7484C53.4607 10.9072 53.4778 11.0712 53.4778 11.2665C53.4778 12.2036 53.1881 12.9664 52.6153 13.5326C51.9609 14.199 51.1037 14.5374 50.0661 14.5374Z" fill="white"/>
<path d="M58.6663 14.3864H54.5449V7.61426H58.6663V8.60216H55.5944V10.5142H58.3648V11.4865H55.5944V13.3985H58.6663V14.3864Z" fill="white"/>
<path d="M62.3257 14.3864H61.2762V8.60216H59.3906V7.61426H64.2112V8.60216H62.3257V14.3864V14.3864Z" fill="white"/>
<path d="M68.4411 14.3864H67.3936V7.61426H68.4411V14.3864Z" fill="white"/>
<path d="M72.2915 14.3864H71.2486V8.60216H69.3564V7.61426H74.1823V8.60216H72.2902V14.3864H72.2915Z" fill="white"/>
<path d="M80.4049 14.5376C79.3962 14.5376 78.5402 14.1927 77.8607 13.512C77.1826 12.8326 76.8389 11.9878 76.8389 11.0012C76.8389 10.0146 77.1826 9.16862 77.8607 8.49049C78.5402 7.80976 79.3962 7.46484 80.4049 7.46484C81.407 7.46484 82.259 7.81237 82.9385 8.497C83.6193 9.17903 83.9656 10.0225 83.9656 11.0025C83.9656 11.9891 83.6219 12.8339 82.9438 13.5133C82.2643 14.1927 81.4096 14.5376 80.4049 14.5376ZM78.6311 12.8339C79.1196 13.3155 79.6991 13.5484 80.4049 13.5484C81.1028 13.5484 81.6967 13.3076 82.1721 12.8339C82.6554 12.3575 82.899 11.7405 82.899 10.9999C82.899 10.2593 82.6541 9.64239 82.1721 9.16601C81.6954 8.69093 81.1015 8.45144 80.4049 8.45144C79.7004 8.45144 79.1196 8.68573 78.6311 9.16601C78.1491 9.64239 77.9055 10.2593 77.9055 10.9999C77.9042 11.7405 78.1491 12.3575 78.6311 12.8339Z" fill="white"/>
<path d="M90.3904 14.3864H89.3449L89.3185 14.3447L86.0175 9.17486L86.0477 10.1862V14.3864H85.0049V7.61426H86.1992L89.3725 12.5733L89.3422 11.5672V7.61426H90.3904V14.3864V14.3864Z" fill="white"/>
<path d="M76.7115 23.9283C74.0674 23.9283 71.9067 25.895 71.9067 28.6075C71.9067 31.2979 74.0674 33.2854 76.7115 33.2854C79.3621 33.2854 81.5215 31.2979 81.5215 28.6075C81.5229 25.895 79.3621 23.9283 76.7115 23.9283ZM76.7115 31.4424C75.2604 31.4424 74.0121 30.2723 74.0121 28.6075C74.0121 26.9207 75.2604 25.7714 76.7115 25.7714C78.1625 25.7714 79.4161 26.9207 79.4161 28.6075C79.4174 30.2723 78.1625 31.4424 76.7115 31.4424ZM66.2275 23.9283C63.5769 23.9283 61.4227 25.895 61.4227 28.6075C61.4227 31.2979 63.5769 33.2854 66.2275 33.2854C68.8768 33.2854 71.0323 31.2979 71.0323 28.6075C71.0323 25.895 68.8768 23.9283 66.2275 23.9283ZM66.2275 31.4424C64.7752 31.4424 63.5229 30.2723 63.5229 28.6075C63.5229 26.9207 64.7752 25.7714 66.2275 25.7714C67.6786 25.7714 68.9269 26.9207 68.9269 28.6075C68.9269 30.2723 67.6786 31.4424 66.2275 31.4424ZM53.7527 25.3627V27.3515H58.6128C58.4706 28.4631 58.09 29.2792 57.508 29.8479C56.7983 30.5352 55.6936 31.2992 53.7527 31.2992C50.7623 31.2992 48.4198 28.9407 48.4198 26.0187C48.4198 23.0966 50.7623 20.7382 53.7527 20.7382C55.3696 20.7382 56.5468 21.3551 57.4145 22.1556L58.8485 20.7551C57.6344 19.6227 56.0188 18.752 53.7527 18.752C49.651 18.752 46.2051 22.0124 46.2051 26.0187C46.2051 30.025 49.6523 33.2854 53.7527 33.2854C55.9688 33.2854 57.6344 32.5761 58.9433 31.2445C60.2851 29.9339 60.7025 28.0921 60.7025 26.6044C60.7025 26.1423 60.663 25.718 60.5932 25.3627C60.5932 25.3627 53.7527 25.3627 53.7527 25.3627ZM104.766 26.9038C104.371 25.8573 103.15 23.9283 100.664 23.9283C98.2008 23.9283 96.1506 25.8248 96.1506 28.6075C96.1506 31.2289 98.1797 33.2854 100.9 33.2854C103.1 33.2854 104.37 31.9747 104.891 31.212L103.258 30.1486C102.713 30.927 101.972 31.4424 100.9 31.4424C99.8349 31.4424 99.0698 30.9647 98.5813 30.025L104.986 27.4361C104.987 27.4361 104.766 26.9038 104.766 26.9038ZM98.235 28.4618C98.1797 26.6578 99.669 25.7336 100.736 25.7336C101.572 25.7336 102.281 26.1423 102.517 26.7268C102.518 26.7268 98.235 28.4618 98.235 28.4618ZM93.0299 33.0004H95.1354V19.2505H93.0299V33.0004ZM89.5814 24.9709H89.5116C89.0389 24.4243 88.1369 23.9283 86.9939 23.9283C84.5962 23.9283 82.4024 25.9849 82.4024 28.6232C82.4024 31.2458 84.5948 33.2854 86.9939 33.2854C88.1369 33.2854 89.0389 32.7869 89.5116 32.222H89.5814V32.8937C89.5814 34.682 88.603 35.6439 87.0255 35.6439C85.7391 35.6439 84.9411 34.7367 84.612 33.9727L82.7804 34.7198C83.3084 35.9602 84.7054 37.4869 87.0255 37.4869C89.4944 37.4869 91.5775 36.0682 91.5775 32.6151V24.2134H89.5814V24.9709V24.9709ZM87.173 31.4424C85.722 31.4424 84.5079 30.2553 84.5079 28.6219C84.5079 26.9728 85.722 25.7701 87.173 25.7701C88.603 25.7701 89.7301 26.9728 89.7301 28.6219C89.7301 30.2566 88.603 31.4424 87.173 31.4424ZM114.623 19.2505H109.588V33.0004H111.688V27.7901H114.625C116.957 27.7901 119.244 26.141 119.244 23.5197C119.242 20.8996 116.95 19.2505 114.623 19.2505ZM114.679 25.8781H111.688V21.1638H114.679C116.247 21.1638 117.141 22.4354 117.141 23.521C117.141 24.5843 116.245 25.8781 114.679 25.8781ZM127.659 23.9023C126.142 23.9023 124.565 24.557 123.916 26.007L125.779 26.7697C126.18 26.007 126.918 25.7597 127.697 25.7597C128.786 25.7597 129.891 26.3988 129.908 27.5285V27.673C129.528 27.4582 128.715 27.1407 127.714 27.1407C125.708 27.1407 123.663 28.2197 123.663 30.2345C123.663 32.0776 125.306 33.2633 127.155 33.2633C128.568 33.2633 129.347 32.6398 129.837 31.9162H129.909V32.9796H131.937V27.7055C131.936 25.2664 130.073 23.9023 127.659 23.9023ZM127.405 31.4372C126.718 31.4372 125.762 31.104 125.762 30.2723C125.762 29.2076 126.955 28.8002 127.988 28.8002C128.913 28.8002 129.346 28.9993 129.908 29.2622C129.743 30.5352 128.622 31.4372 127.405 31.4372ZM139.325 24.203L136.912 30.1642H136.839L134.344 24.203H132.079L135.828 32.5331L133.688 37.1681H135.882L141.66 24.203C141.661 24.203 139.325 24.203 139.325 24.203ZM120.397 33.0004H122.503V19.2505H120.397V33.0004Z" fill="white"/>
<path d="M11.7493 8.29229C11.4188 8.6307 11.2266 9.15654 11.2266 9.83857V34.1651C11.2266 34.8472 11.4175 35.3743 11.7493 35.7114L11.8309 35.7856L25.7845 22.1594V21.8379L11.8309 8.21289L11.7493 8.29229Z" fill="url(#paint0_linear)"/>
<path d="M30.4296 26.7062L25.7842 22.1623V21.8408L30.4362 17.2969L30.5402 17.3554L36.0495 20.4181C37.6217 21.2876 37.6217 22.7167 36.0495 23.5914L30.5402 26.6476C30.5389 26.6463 30.4296 26.7062 30.4296 26.7062Z" fill="url(#paint1_linear)"/>
<path d="M30.539 26.6451L25.7829 21.9985L11.749 35.7119C12.2718 36.2481 13.1224 36.3132 14.0915 35.777L30.539 26.6451Z" fill="url(#paint2_linear)"/>
<path d="M30.5384 17.3546L14.0896 8.22266C13.1218 7.69161 12.2698 7.75669 11.7471 8.29294L25.7823 21.9999L30.5384 17.3546Z" fill="url(#paint3_linear)"/>
<defs>
<linearGradient id="paint0_linear" x1="24.5441" y1="34.421" x2="6.08874" y2="15.5301" gradientUnits="userSpaceOnUse">
<stop stop-color="#00A0FF"/>
<stop offset="0.0066" stop-color="#00A1FF"/>
<stop offset="0.2601" stop-color="#00BEFF"/>
<stop offset="0.5122" stop-color="#00D2FF"/>
<stop offset="0.7604" stop-color="#00DFFF"/>
<stop offset="1" stop-color="#00E3FF"/>
</linearGradient>
<linearGradient id="paint1_linear" x1="38.0951" y1="22.0011" x2="10.851" y2="22.0011" gradientUnits="userSpaceOnUse">
<stop stop-color="#FFE000"/>
<stop offset="0.4087" stop-color="#FFBD00"/>
<stop offset="0.7754" stop-color="#FFA500"/>
<stop offset="1" stop-color="#FF9C00"/>
</linearGradient>
<linearGradient id="paint2_linear" x1="18.558" y1="28.6532" x2="-6.4687" y2="3.03565" gradientUnits="userSpaceOnUse">
<stop stop-color="#FF3A44"/>
<stop offset="1" stop-color="#C31162"/>
</linearGradient>
<linearGradient id="paint3_linear" x1="-1.17756" y1="34.6308" x2="9.99809" y2="23.1916" gradientUnits="userSpaceOnUse">
<stop stop-color="#32A071"/>
<stop offset="0.0685" stop-color="#2DA771"/>
<stop offset="0.4762" stop-color="#15CF74"/>
<stop offset="0.8009" stop-color="#06E775"/>
<stop offset="1" stop-color="#00F076"/>
</linearGradient>
</defs>
</svg>
