<svg xmlns="http://www.w3.org/2000/svg" width="760.9" height="361.7" viewBox="0 0 760.9 361.7"><path d="M68.7 218.2L53.6 191l-4.6 1.3 10.4 18.6-6.3 1.7-9.6-17.2-4.6 1.3 9.6 17.2-6.3 1.6L31.8 197l-4.6 1.3 15.2 27zM49.3 181.9l-3-8.6-11.2-1.4-2.2-6.3 8.4-6.3-3.4-9.5-9.1 7c-3.2-4.8-7.2-7.7-11.5-8.3-6.3-.8-8.4 4-5.1 13.3l5.7 16zm-19.5-10.7l-9.6-1.2-2-5.8c-1.8-5-1-7.2 2.2-6.8s5.5 3 7.3 8zM36.3 142.5l-1-8-12.1-5.4-.8-5.9 11.1-1.8-1.2-8.9-12.2 2.2a21 21 0 00-10.6-11c-6.7-3-10.4 0-9.3 8.7l2 15zm-19-16L7 122l-.7-5.4c-.6-4.6 1-6 4.3-4.6s5.4 4.5 6 9.1zM20.4 64.1C9.3 55.7 1.8 57.4.4 65.8s3.7 19.6 14.8 28 18.6 6.8 20.1-1.7-3.7-19.6-14.9-28zM19.3 71c7.2 5.5 10.5 11.6 9.7 16.4s-5.3 5.1-12.6-.3S6 75.4 6.7 70.6s5.3-5 12.6.3zM40.4 72l3.3-4.7-11-12L35 52 49 59.7l3.6-5.2L37.3 46c.3-4.2-1.8-9-6-13.7-6.2-6.7-12.2-8.1-15.7-3L9.4 38zm-13-22.5l-9.3-10.3 2.2-3.2c1.9-2.7 4.5-2.2 7.6 1.2s3.7 6.4 1.8 9zM66.8 46l17.8-5-4-7-12.2 3.4-5.4-9.6 11.3-3-4-7-11.2 3-5.4-9.5 12.1-3.4L62 1 44.3 5.8zM91.2 40.7l6.6.8-5.2-14.4 4.8.6 11.2 15.1 7.3 1L103.5 27c2.9-1.6 3.4-5.4 1.4-11-3-8-8.9-13.8-16-14.6L76.5 0zm-1-20.5L85.6 7.8l4.4.6c3.9.4 6.5 2.9 8 7s.3 5.8-3.5 5.4zM122.3 46l7.2 3-1.9-13.4 5.3 2.3 8.4 16.3 8 3.5-9.3-18c3.6-.2 5.2-3 4.5-8.3a23.1 23.1 0 00-14-17.7l-13.4-6zm4.4-17l-1.6-11.4 4.9 2c4.2 1.9 6.5 4.8 7 8.6s-1.2 4.8-5.4 3zM189.7 69c1.8-10.4-4.2-21.6-13.2-28.3s-17-6-18.7 4.4 4 21.4 13.2 28.2 17 6 18.7-4.3zm-7.3-5.5c-1.2 6.7-5.2 7.8-10.4 4a17.2 17.2 0 01-7-17c1.2-6.7 5.2-7.8 10.5-3.9a17.2 17.2 0 016.9 17zM193.9 91.6l6.6 7.2 5.4-8 4.8 5.2.4 14.4 7.3 8-.6-16c4.2 2.7 7.7 2.6 9.8-.5 3-4.5 1-11.8-6-19.5l-12.3-13.3zm14.6-4.6l4.7-6.8 4.4 4.8c3.8 4.1 4.8 7.3 3.3 9.6s-4.2 1.3-8-2.8zM235.4 142.4l15.3 27.1 4.6-1.3-10.6-18.6 6.3-1.8 9.7 17.2 4.6-1.3-9.7-17.2 6.2-1.8 10.5 18.6 4.6-1.3-15.3-27zM255.1 178.7l3.1 8.6 11.1 1.2 2.3 6.3-8.3 6.5 3.5 9.5 9-7.3c3.2 4.8 7.2 7.7 11.5 8.2 6.2.7 8.2-4.2 4.9-13.4l-5.9-16.1zm19.5 10.5l9.5 1 2 5.9c1.9 5 1 7.1-2 6.8s-5.6-3-7.4-7.9zM268.4 218.1l1.1 8.1 12.1 5.2.8 6-11 2 1.3 8.8 12-2.4a21 21 0 0010.7 11c6.8 2.9 10.4-.3 9.2-9l-2.1-15zm19 15.8l10.3 4.5.8 5.4c.6 4.7-.9 6.1-4.3 4.7s-5.4-4.5-6-9zM285 296.7c11.2 8.3 18.6 6.6 20-1.9s-4-19.7-15.2-28-18.5-6.6-20 2 4 19.6 15.2 28zm1.1-6.8c-7.2-5.4-10.6-11.5-9.9-16.4s5.3-5.2 12.5.2 10.6 11.5 9.8 16.4-5.2 5.2-12.4-.2zM265 289L262 294l11 12-2.4 3.5-13.9-7.7-3.5 5.3 15.3 8.3c-.2 4.2 1.9 9 6.1 13.6 6.2 6.7 12.2 8 15.6 3l6-9zm13.2 22.6l9.4 10.2-2.2 3.2c-1.8 2.8-4.4 2.3-7.5-1s-3.8-6.4-2-9.2zM238.3 315.7l-17.8 5 4 7 12.2-3.4 5.4 9.5-11.3 3.1 4 7 11.2-3 5.4 9.5-12.2 3.4 4 7 17.7-5zM214 321l-6.7-.9 5.2 14.5-4.9-.6-11-15.2-7.4-.8 12.3 16.6c-2.8 1.6-3.3 5.4-1.3 11 2.9 8 8.9 13.7 16 14.6l12.3 1.5zm1 20.5l4.4 12.3-4.5-.5c-3.8-.5-6.4-2.9-7.9-7s-.3-5.8 3.5-5.3zM182.8 315.8l-7.2-3.2 1.9 13.5-5.3-2.3-8.3-16.3-8-3.5 9.2 18c-3.6.2-5.2 3-4.5 8.2a23 23 0 0014 17.8L188 354zm-4.5 16.8l1.6 11.5-4.8-2.1c-4.2-1.8-6.5-4.8-7-8.6s1.2-4.8 5.3-3zM115.4 292.7c-1.8 10.4 4.2 21.6 13.2 28.3s17 6 18.7-4.4-4.1-21.4-13.2-28.3-17-6-18.7 4.4zm7.3 5.5c1.1-6.7 5.2-7.8 10.4-3.9a17.2 17.2 0 017 16.9c-1.2 6.7-5.3 7.8-10.5 3.9a17.2 17.2 0 01-6.9-16.9zM111.2 270l-6.6-7.1-5.4 8-4.8-5.2-.4-14.4-7.3-8 .6 16c-4.2-2.7-7.7-2.6-9.8.5-3 4.5-1 11.8 6 19.5l12.3 13.4zm-14.7 4.7l-4.6 6.8-4.4-4.8c-3.8-4.2-4.8-7.4-3.3-9.6s4.1-1.4 7.9 2.7z" fill="#07f"/><path d="M137.3 130.4L162 116 302.3 88l62.3 10 .1 7.7.1 7.6.2 7.6v7.6l.3 5.1v9.9l.2 7.5-41.6 27.7.2 5.4.2 8 .2 7.9-22.4 16.3-22.3-4.3-17.3 12.4-50-9.7-.4-8-.4-8-71-13-.5-7.9-.5-7.8-.4-7.8-.5-7.9-.5-7.9-.5-8z" fill="#07f"/><path d="M137.3 130.4L162 116 302.3 88l62.3 10m-227.4 32.5l90.7 16.1-18.1 11.4m-72.6-27.5l.5 8 .5 7.8.5 8 .5 7.8.5 7.8.5 7.8.5 7.8 71 13.1m153-100.6l-61 42.4 19.6 3.4m41.3-45.8l.1 7.7.2 7.6v7.6l.2 7.6.1 5.1v2.4l.2 7.5v7.5L324 178.6m-.7-35l-22.8 15.7m22.8-15.7v8.4l.2 8 .2 8 .2 8 .2 8 .2 8 .2 7.8-22.4 16.3m-1.6-56.8l-22.6-4m22.6 4l.2 8.2.3 8.2.2 8.1.2 8.1.3 8.1.2 8 .2 8M260.3 167l-50.5-9.2m50.5 9.2l17.6-11.7M260.3 167l.3 8.3.4 8.2.3 8.2.3 8.2.3 8.1.3 8.2.3 8m-52.7-66.3l.4 8.1.4 8.2.4 8.1.3 8.1.4 8.1m66.2-43.2l.4 8.3.2 8.1.3 8.2.3 8 .2 8.1.3 8 .3 8m22.3 4.3l-22.3-4.3m-17.4 12.4l17.4-12.4m-17.4 12.4l-50-9.7m0 0l-.8-16m.8 16l-.4-8-.4-8m0-74.5l41 7.8 36-23.8z" fill="none" stroke="#fff" stroke-linecap="round" stroke-width="4"/><path d="M278 155.3L260.2 167l.3 8.3.4 8.2.3 8.2.3 8.2.3 8.2.3 8 .3 8.2 17.3-12.4 22.3 4.3 22.4-16.3-.2-8-.2-7.9-.1-5.4 41.5-27.6-.1-7.5-.2-7.6v-7.5l-.2-7.6v-7.6l-.2-7.6-.1-7.7-60.9 42.4 19.5 3.4-22.8 15.7zm-25.3-23.5l-41-7.8 77-16z" fill="#00408a"/><path d="M137.3 130.4L162 116 302.3 88l62.3 10m-227.4 32.5l90.7 16.1-18.1 11.4m-72.6-27.5l.5 8 .5 7.8.5 8 .5 7.8.5 7.8.5 7.8.5 7.8 71 13.1m153-100.6l-61 42.4 19.6 3.4m41.3-45.8l.1 7.7.2 7.6v7.6l.2 7.6.1 5.1v2.4l.2 7.5v7.5L324 178.6v5.4m-.7-40.3l-22.8 15.6m22.8-15.6v8.4l.2 8 .2 8 .2 8 .2 8m-23.6-24.8l-22.6-4m22.6 4l.2 8.2.3 8.2.2 8.1.2 8.1.3 8.1.2 8.1.2 8m-41.8-49.2l-50.5-9.1m50.5 9.1l17.6-11.6m-17.6 11.6l.3 8.3.4 8.2.3 8.2.3 8.2.3 8.2.3 8.1.3 8.1m-52.7-66.4l.4 8.2.4 8.1.4 8.2.3 8 .4 8.1m66.2-43.1l.4 8.2.2 8.1.3 8.2.3 8 .2 8.1.3 8 .3 8m22.3 4.3l22.3-16.3-.2-8-.2-7.9m-22 32.2l-22.2-4.3m-17.4 12.4l17.4-12.4m-17.4 12.4l-50-9.7m0 0l-.8-16m.8 16l-.4-8-.4-8m0-74.5l41 7.8 36-23.8z" fill="none" stroke="#fff" stroke-linecap="round" stroke-width="4"/><path d="M379.8 249.5l13.2 3 14 2.3 14 1.5 13.9.6 13.5-.2 13.2-1.2 12.6-1.9 12.1-2.7 11.4-3.5 10.6-4.3 9.7-5 8.8-5.7 2.6-2.1v-4.6l.2-8.5.2-8.6.1-8.5 10.9-9.7-2.8-2.6-6.4-4-7.9-3.6-3.2-1.1-1.7 1-9.8 4.7-10.7 4-11.5 3.3-1.4.3 1.8 2 1 2.1.3 2.5-.6 2.7-1.4 3-2.2 3.3-3.2 3.6-4.1 4-4.9 4-5 3.4-5.1 3-5.3 2.5-5.2 2.1-5.3 1.8-5.3 1.2-5.3.9-5.2.5h-5.1l-5-.4-4.9-.7-4.5-1-3.7-1.3-3.1-1.6-2.4-1.9-1.6-2.1-.8-2.4v-2.7l1-3 1.8-3.1 2.8-3.4 3.6-3.7 4.6-3.9 5-3.7 4.6-2.9h-2l-14.1-1.4-14.2-2.2-13.4-2.9-11-3.1-.9.5-8.6 5.7-7.3 6.1-5.6 6-3.7 5.9-1.9 5.7v5.5l2 5.2 3.7 5 5.7 4.7 7.6 4.3 9.4 3.9zM406.7 174l3.8 1.2 4.5 1 5 .6 5 .4h5.2l5.3-.4 5.3-.9 5.4-1.2 5.3-1.6 5.4-2 5.2-2.4.6-.3-9.8-.5-12 .2-11.8.8-11.4 1.5-11 2.1-2 .6zM698.3 230L686 244l-.4 9-.5 8.8-.4 8.9-.4 8.8-.5 8.8-.4 8.8-.4 8.7L695 291l.5-8.6.4-8.7.5-8.7.5-8.7.4-8.7.5-8.8z" fill="#07f"/><path d="M695.1 291l26.8 5 .5-8.6.5-8.7.3-4.8.2-3.9.5-8.7.3-5.3.2-3.5.5-8.8.5-8.9-12.1-2.2-15-2.6-.5 8.8-.5 8.8-.4 8.7-.5 8.7-.4 8.7-.5 8.7z" fill="#07f"/><path d="M741.3 216l-15.9 18.8-.5 8.9-.5 8.8-.2 3.5-.3 5.3-.5 8.7-.2 4-.3 4.7-.5 8.7-.5 8.7 15.5-19.5.5-8.5.5-8.6.6-8.5.5-8.6.3-5.2.2-3.5.5-8.6z" fill="#07f"/><path d="M759 161.5l-73.8-11.9L549 183.1l-8.2 7.3L530 200l17.5 3 59 10.6 27.7 4.9 4.2.7-13.2 13.7-.3 8.8-.2 4.4-.2 4.4-.1 5-.2 3.8-.3 8.7-.3 8.8v.4l-.3 8.2-.3 8.7 60 11.6.4-8.7.4-8.8.5-8.8.4-8.8.4-8.9.5-8.9.4-8.9 12.4-14 15 2.7 12.2 2.1 15.8-18.8-26.6-4.6zm-151.4 31l74.6-19 1.7.3-1.8 1.9-25.3 26.1-49.8-8.6z" fill="#07f"/><path d="M625.1 233l13.2-13.7-4.2-.7-27.8-5-59-10.4L530 200l-.1 8.6-.2 8.5-.1 8.5-.1 4.6v3.8l-.2 8.5-.2 8.4-.1 8.3 94.5 18v-.4l.4-8.8.3-8.7.1-3.8.2-5 .2-4.4.1-4.4zM682.2 173.5l-.1 2.2 1.8-2zM682.2 173.5l-74.6 19-.6.6 49.8 8.7 25.3-26.2zM379 190.8l13.3 2.8 14.3 2.2 14.2 1.4h1.9l12 .6 13.8-.3 13.3-1 12.8-1.8 10.8-2.2 1.4-.4 11.5-3.3 10.7-4 9.9-4.7 1.6-1 7.2-4.3 7.9-6 6.2-6.1 4.2-5.8 2.2-5.5.4-5.2-1.5-4.8-3.1-4.5-4.9-4.2-6.5-3.8-8-3.4-9.5-3.1-11-2.7-12.5-2.4-13.2-1.8-12.8-1.1-12.6-.6-12.2.2-11.9.7-11.5 1.4-11.1 2-10.7 2.7-10.4 3.4-9.7 4-10.3 5.3-7.6 4.8-7.5 5.7-5.6 5.7-3.8 5.5-1.9 5.4v5.1l1.3 3.3.7 1.7 3.8 4.6 5.7 4.4 7.7 4 9.6 3.8h.4zm29-39.4l4.8-3.6 5-3.5 5-3 5.2-2.6 5-2.2 5-1.8 5-1.4 5-1 5-.7 5-.4h4.8l4.8.3 4.6.6 4.4 1 3.7 1 3.1 1.4 2.5 1.5 1.8 1.9 1 2 .3 2.3-.6 2.6-1.4 2.8-2.3 3.1-3.2 3.4-4.2 3.7-5 3.7-5 3.3-4.6 2.5-.6.3-5.3 2.5-5.3 2-5.4 1.6-5.3 1.2-5.4.8-5.2.4H425l-5-.3-5-.7-4.5-1-3.8-1.2-2-1-1.2-.6-2.4-1.7-1.6-2-.8-2.3v-2.5l1-2.8 1.8-3 2.8-3.2zM714.7 211.4l26.6 4.6-.8 9-.5 8.7-.2 3.4 15.5-18.7.5-8 .5-8.1.5-8.1.5-8.2.6-8.1.5-8.2.5-8.3z" fill="#07f"/><path d="M462.1 168.6l.6-.3-9.8-.5-12 .2-11.8.8-11.4 1.5-11 2.1-2 .6 2 1 3.9 1.2 4.5 1 5 .6 5 .4h5.2l5.2-.5 5.4-.8 5.3-1.2 5.4-1.6 5.3-2z" fill="#07f"/><path d="M423.1 197l-.4.3m107.2 2.8l-.1 8.5-.2 8.6-.1 8.5v4.6m.4-30.2l11-9.7m-11 9.7l17.4 3 59 10.6 27.8 4.9 4.2.7-13.2 13.7-.3 8.8-.2 4.4-.2 4.4-.1 5-.2 3.8-.3 8.7-.3 8.8v.4m58.7-103.8l-74.6 19-.6.6 49.8 8.7 25.3-26.2m0-2.1l1.8.2-1.8 2m0-2.2v2.1m76.8-14l-73.7-12L549 183.1l-8.2 7.3M759 161.5l-.5 8.2-.5 8.2-.5 8.2-.6 8.1-.5 8.1-.5 8.1-.5 8-15.5 18.8m19.1-75.7l-44.2 50 26.6 4.5m0 0l-15.9 18.8m15.9-18.8l-.8 9-.5 8.7-.2 3.4m-14.4-2.3l-.5 8.8-.5 8.8-.2 3.5-.3 5.3-.5 8.8-.3 3.9-.2 4.8-.5 8.7-.5 8.6m3.5-61.2l-12.1-2.2-15-2.6m0 0l-12.4 14-.5 9-.4 8.8-.5 8.9-.4 8.8-.4 8.8-.5 8.8-.4 8.7m15.4-75.8l-.4 8.8-.5 8.8-.4 8.7-.5 8.7-.4 8.7-.5 8.7-.4 8.6m26.7 5l15.5-19.4.5-8.5.6-8.6.5-8.6.5-8.6.3-5.2m-17.9 59l-26.7-5.1m-12.3 14.8L695 291m-12.3 14.8l-60-11.6.3-8.7.3-8.2m-94-47l-2.7 2.1-8.8 5.7-9.7 5-10.6 4.3-11.3 3.5-12 2.7-12.7 2-13.2 1-13.5.2-13.8-.6-14-1.4-14.1-2.3-13.2-3-11.3-3.5-9.5-3.9-7.6-4.3-5.7-4.6-3.8-5-1.9-5.2v-5.5l1.9-5.7 3.7-5.8 5.6-6 7.3-6.1 8.6-5.8 1-.5m161.3 42.7v3.8l-.2 8.4-.1 8.5-.2 8.3 94.6 18m-82.7-87l-2.7-2.5-6.4-4-8-3.7-3.1-1m0 0l-1.7 1-9.8 4.6-10.8 4-11.5 3.3-1.4.4m35.2-13.4l7.2-4.4 7.8-6 6.2-6 4.2-5.9 2.3-5.5.3-5.1-1.4-4.9-3.2-4.5-4.9-4.1-6.4-3.8-8-3.5-9.6-3-11-2.8-12.5-2.3-13.2-1.7-12.8-1.1-12.6-.5h-12.2l-11.9.8-11.5 1.4-11.1 2-10.7 2.7-10.4 3.4-9.7 4-10.3 5.3-7.6 4.8-7.5 5.7-5.6 5.7-3.8 5.5-1.9 5.4v5.1l1.3 3.3.7 1.7 3.8 4.6 5.7 4.4 7.7 4 9.6 3.8h.4m117.4 4.9h.1l1.7 2 1 2.1.3 2.5-.5 2.7-1.4 3-2.3 3.3-3.1 3.6-4.2 4-4.9 4-5 3.4-5.1 3-5.3 2.5-5.2 2.2-5.3 1.7-5.3 1.2-5.3.9-5.2.5h-5.1l-5-.4-4.9-.7-4.5-1-3.7-1.3-3.1-1.6-2.4-1.9-1.6-2.1-.8-2.4v-2.7l1-3 1.8-3.1 2.8-3.4 3.6-3.7 4.6-3.9 5-3.6 4.6-3m62.7-4.8l-10.8 2.3-12.8 1.8-13.3 1-13.7.2-12.1-.4m0 0l-2-.1-14.1-1.4-14.3-2.2-13.3-2.8-11-3.2m36.8-14.7l-1.2-.5-2.4-1.8-1.6-2-.8-2.2v-2.6l1-2.7 1.8-3 2.8-3.2 3.7-3.5 4.7-3.7 5-3.4 5.1-3 5-2.6 5.1-2.2 5-1.8 5-1.4 5-1 5-.7 5-.4h4.8l4.8.3 4.6.6 4.4.9 3.7 1.1 3.2 1.3 2.4 1.6 1.8 1.8 1 2.1.3 2.3-.6 2.6-1.4 2.8-2.2 3.1-3.3 3.4-4.2 3.7-5 3.7-5 3.2-4.6 2.6m-58 4.7l2-.5 11-2.2 11.3-1.5 11.8-.8 12-.1 9.8.4m-58 4.7l2 1 3.9 1.2 4.5 1 5 .7 5 .3h5.1l5.3-.4 5.4-.8 5.3-1.3 5.4-1.6 5.3-2 5.3-2.4.6-.3" fill="none" stroke="#fff" stroke-linecap="round" stroke-width="4"/><path d="M698 229.4l-12.4 14-.5 9-.4 8.8-.5 8.9-.4 8.8-.4 8.8-.5 8.8-.4 8.7 12.3-14.8.4-8.6.5-8.7.4-8.7.5-8.7.4-8.7.5-8.8z" fill="#00408a"/><path d="M694.8 290.4l26.7 5.1.5-8.7.5-8.6.3-4.8.2-4 .5-8.7.3-5.3.2-3.5.5-8.8.6-8.9-12.2-2.1-15-2.7-.4 8.8-.5 8.8-.4 8.7-.5 8.8-.4 8.6-.5 8.7z" fill="#00408a"/><path d="M741 215.4l-16 18.8-.5 8.9-.5 8.8-.2 3.5-.3 5.3-.5 8.7-.2 4-.3 4.8-.5 8.7-.5 8.6L737 276l.6-8.5.5-8.5.5-8.6.5-8.6.3-5.2.2-3.4.6-8.7zM681.8 173v2l1.7-1.8zM681.8 173l-74.5 19-.7.5 49.9 8.7 25.2-26.2z" fill="#00408a"/><path d="M714.4 210.8l26.5 4.6-.7 9.1-.6 8.7-.2 3.4 15.5-18.7.5-8 .6-8.2.5-8 .5-8.2.5-8.2.5-8.2.5-8.2z" fill="#00408a"/><path d="M529.6 199.5l-.2 8.6-.1 8.5-.2 8.5v4.6l-.1 3.9-.2 8.4-.1 8.4-.1 8.4 94.5 18m-93.5-77.3l10.9-9.7 8.1-7.3L684.8 149l73.7 12m-229 38.5l17.5 3.1 59 10.5 27.8 5 4.2.7-13.2 13.6-.3 8.9-.2 4.3-.2 4.5-.2 4.9v3.8l-.4 8.8-.3 8.7v.5m58.6-103.9l-74.5 19-.7.6 49.9 8.7 25.2-26.2m.1-2.1l1.7.2-1.8 2m.1-2.2v2.1m76.8-14.1l-.6 8.2-.5 8.2-.5 8.1-.5 8.2-.5 8.1-.5 8-.6 8.1-15.5 18.7m19.2-75.6l-44.2 50 26.5 4.5m0 0l-15.8 18.8m15.8-18.8l-.7 9-.6 8.7-.2 3.4m-14.3-2.3l-.5 8.8-.6 8.8-.2 3.5-.3 5.3-.5 8.8-.2 4-.3 4.7-.5 8.7-.5 8.7m3.6-61.3l-12.2-2.2-15-2.6m0 0l-12.4 14-.4 8.9-.5 8.9-.4 8.9-.4 8.8-.5 8.8-.4 8.8-.4 8.7m15.5-75.8l-.5 8.8-.5 8.8-.4 8.8-.5 8.7-.4 8.6-.5 8.7-.4 8.6m26.7 5.1L737 276l.6-8.5.5-8.5.5-8.6.5-8.6.3-5.2m-17.9 59l-26.7-5.2m-12.3 14.9l12.3-14.9m-12.3 14.9l-60-11.7.3-8.6.3-8.2" fill="none" stroke="#fff" stroke-linecap="round" stroke-width="4"/><path d="M376.1 249.5l13.2 3 14 2.3 14 1.5 14 .6 13.5-.2 13.1-1.2 12.7-2 12-2.6 11.4-3.5 10.6-4.3 9.7-5 8.8-5.7 2.6-2.2.1-4.6.2-8.5.1-8.5.2-8.6 10.8-9.7-2.7-2.5-6.4-4-8-3.7 10.3-6.2-15.1 6.2-9.9 4.7-10.7 4-11.5 3.3-1.4.3 1.8 2 1 2.2.3 2.4-.5 2.7-1.4 3-2.3 3.3-3.2 3.6-4.1 4-4.9 4-5 3.4-5.1 3-5.2 2.5-5.3 2.2-5.3 1.7-5.3 1.2-5.3.9-5.2.5h-5.1l-5-.4-4.9-.7-4.4-1-3.8-1.3-3.1-1.6-2.4-1.9-1.6-2.1-.7-2.4v-2.7l.9-2.9 1.8-3.2 2.7-3.4 3.7-3.6 4.6-4 5-3.6 4.6-3h-2l-14.1-1.4-14.3-2.2-13.3-2.8-11-3.2-1 .5-8.5 5.8-7.4 6-5.5 6-3.8 6-1.8 5.6v5.5l2 5.2 3.7 5 5.7 4.7 7.6 4.3 9.5 3.9zM403 174l3.9 1.1 4.5 1 4.9.7 5 .4h5.2l5.3-.5 5.3-.8 5.4-1.2 5.4-1.6 5.3-2 5.3-2.4.5-.3-9.7-.5-12.1.2-11.8.8-11.4 1.5-11 2.1-3.2-4.2c0 1.7.8 3 3.2 5.6z" fill="#00408a"/><path d="M363.9 187.5l.4.1m55.2 9.4l-.5.3M525.7 234v-3.8m0 0l-2.6 2.1-8.8 5.7-9.7 5-10.6 4.3-11.4 3.5-12 2.7-12.7 2-13.1 1-13.6.2-13.8-.6-14-1.4-14-2.3-13.3-3-11.3-3.5-9.5-3.9-7.6-4.3-5.7-4.6-3.7-5-2-5.2v-5.5l2-5.7 3.6-5.8 5.6-6 7.4-6.1 8.6-5.8.8-.5m161.5 42.7v-4.7l.2-8.4.1-8.6.2-8.5 10.9-9.7-2.8-2.6-6.4-4-8-3.6 10.4-6.3-15.2 6.2-9.8 4.7-10.7 4-11.5 3.3-1.5.3m0 0h0l1.8 2 1 2.2.3 2.4-.5 2.8-1.4 3-2.3 3.3-3.2 3.5-4.1 4-4.9 4-5 3.4-5.1 3-5.2 2.5-5.3 2.1-5.3 1.8-5.3 1.2-5.3.9-5.2.5h-5.1l-5-.4-4.9-.7-4.4-1-3.8-1.3-3.1-1.6-2.4-1.9-1.6-2.1-.7-2.4v-2.7l.9-2.9 1.8-3.2 2.7-3.4 3.7-3.6 4.6-4 5-3.6 4.6-3m62.6-4.8l-10.7 2.3-12.8 1.8-13.3 1-13.7.2-12-.5m0 0h-2l-14.2-1.4-14.2-2.2-13.4-2.8-11-3.2M403 174l3.9 1.2 4.5 1 4.9.7 5 .3h5.2l5.3-.4 5.3-.8 5.4-1.2 5.4-1.6 5.3-2 5.3-2.5.5-.3-9.7-.4-12.1.1-11.8.9-11.4 1.4-11 2.2-3.2-4.2c0 1.7.8 3 3.2 5.6z" fill="none" stroke="#fff" stroke-linejoin="round" stroke-width="4"/></svg>