<svg width="24" height="24" viewBox="0 0 24 24" fill="none" xmlns="http://www.w3.org/2000/svg">
<path d="M21 16C21.6 16 22 15.6 22 15V3C22 2.4 21.6 2 21 2H3C2.4 2 2 2.4 2 3V15C2 15.6 2.4 16 3 16H11.1V16.2C10.3 16.5 9.6 17.2 9.3 18H3.1C2.5 18 2.1 18.4 2.1 19C2.1 19.6 2.5 20 3.1 20H9.3C9.7 21.2 10.8 22 12.1 22C13.4 22 14.5 21.2 14.9 20H20.9C21.5 20 21.9 19.6 21.9 19C21.9 18.4 21.5 18 20.9 18H14.9C14.6 17.2 13.9 16.5 13.1 16.2V16H21ZM4 4H20V8H4V4ZM12.1 20C11.5 20 11.1 19.6 11.1 19C11.1 18.4 11.5 18 12.1 18C12.7 18 13.1 18.4 13.1 19C13.1 19.6 12.7 20 12.1 20ZM4 14V10H20V14H4Z" fill="#0077FF"/>
<path d="M6 7C6.55228 7 7 6.55228 7 6C7 5.44772 6.55228 5 6 5C5.44772 5 5 5.44772 5 6C5 6.55228 5.44772 7 6 7Z" fill="#0077FF"/>
<path d="M9 7C9.55228 7 10 6.55228 10 6C10 5.44772 9.55228 5 9 5C8.44772 5 8 5.44772 8 6C8 6.55228 8.44772 7 9 7Z" fill="#0077FF"/>
<path d="M18 7C18.5523 7 19 6.55228 19 6C19 5.44772 18.5523 5 18 5C17.4477 5 17 5.44772 17 6C17 6.55228 17.4477 7 18 7Z" fill="#0077FF"/>
<path d="M6 13C6.55228 13 7 12.5523 7 12C7 11.4477 6.55228 11 6 11C5.44772 11 5 11.4477 5 12C5 12.5523 5.44772 13 6 13Z" fill="#0077FF"/>
<path d="M9 13C9.55228 13 10 12.5523 10 12C10 11.4477 9.55228 11 9 11C8.44772 11 8 11.4477 8 12C8 12.5523 8.44772 13 9 13Z" fill="#0077FF"/>
<path d="M18 13C18.5523 13 19 12.5523 19 12C19 11.4477 18.5523 11 18 11C17.4477 11 17 11.4477 17 12C17 12.5523 17.4477 13 18 13Z" fill="#0077FF"/>
</svg>
