<svg width="24" height="24" viewBox="0 0 24 24" fill="none" xmlns="http://www.w3.org/2000/svg">
<path d="M19 14V9C19 5.1 15.9 2 12 2C8.1 2 5 5.1 5 9V14C4.4 14 4 14.4 4 15C4 15.6 4.4 16 5 16H11V17C11 17.6 11.4 18 12 18C12.6 18 13 17.6 13 17V16H19C19.6 16 20 15.6 20 15C20 14.4 19.6 14 19 14ZM17 14H7V9C7 6.2 9.2 4 12 4C14.8 4 17 6.2 17 9V14Z" fill="#0077FF"/>
<path d="M12 6C10.3 6 9 7.3 9 9C9 9.6 9.4 10 10 10C10.6 10 11 9.6 11 9C11 8.4 11.4 8 12 8C12.6 8 13 7.6 13 7C13 6.4 12.6 6 12 6Z" fill="#0077FF"/>
<path d="M14 18C13.4 18 13 18.4 13 19C13 19.6 12.6 20 12 20C11.4 20 11 19.6 11 19C11 18.4 10.6 18 10 18C9.4 18 9 18.4 9 19C9 20.7 10.3 22 12 22C13.7 22 15 20.7 15 19C15 18.4 14.6 18 14 18Z" fill="#0077FF"/>
</svg>
