<svg xmlns="http://www.w3.org/2000/svg" viewBox="0 0 28 28"><path d="M19.52,0h-11A8.49,8.49,0,0,0,0,8.46V19.54A8.49,8.49,0,0,0,8.49,28h11A8.48,8.48,0,0,0,28,19.54V8.46A8.47,8.47,0,0,0,19.52,0Zm6.15,20.22a5.46,5.46,0,0,1-5.45,5.45H7.78a5.46,5.46,0,0,1-5.45-5.45V7.78A5.46,5.46,0,0,1,7.78,2.33H20.22a5.46,5.46,0,0,1,5.45,5.45Z"/><path d="M21.58,8.32a1.7,1.7,0,1,0-1.7-1.69A1.69,1.69,0,0,0,21.58,8.32Z"/><path d="M14.05,6.92a7.17,7.17,0,1,0,7.2,7.16A7.2,7.2,0,0,0,14.05,6.92Zm.07,11.75A4.66,4.66,0,1,1,18.79,14,4.66,4.66,0,0,1,14.12,18.67Z"/></svg>