<svg xmlns="http://www.w3.org/2000/svg" xmlns:xlink="http://www.w3.org/1999/xlink" style="display:none"><symbol id="account-32px_icon"><path d="M32 16A16 16 0 1116 0a16 16 0 0116 16zM16 2A14 14 0 005.28 25a13.94 13.94 0 016.56-4.37 7 7 0 118.32 0A13.94 13.94 0 0126.72 25 14 14 0 0016 2zm0 18a5 5 0 10-5-5 5 5 0 005 5zm-9.32 6.44a14 14 0 0018.64 0 12 12 0 00-18.64 0z"/></symbol><symbol id="account_icon"><path d="M20 10A10 10 0 1110 0a10 10 0 0110 10zM10 2a8 8 0 00-6.62 12.5 10 10 0 013.16-1.89 5 5 0 116.92 0 9.87 9.87 0 013.15 1.89A7.91 7.91 0 0018 10a8 8 0 00-8-8zm0 10a3 3 0 10-3-3 3 3 0 003 3zm0 2a8 8 0 00-5.29 2 8 8 0 0010.58 0A8 8 0 0010 14z"/></symbol><symbol id="arrow-down-icon"><path d="M.29 1.71A1 1 0 011 0h7a1 1 0 01.69 1.71L4.5 6z"/></symbol><symbol id="arrow-right-icon"><path d="M1.71 8.71A1 1 0 010 8V1A1 1 0 011.71.29L6 4.5z"/></symbol><symbol id="calendar_icon"><path d="M10 18a1 1 0 00.56-.17.94.94 0 00.36-.45 1 1 0 00.08-.58 1 1 0 00-.8-.8 1 1 0 00-.58.06.94.94 0 00-.45.36A1 1 0 0010 18zm5 0a1 1 0 00.56-.17.94.94 0 00.36-.45 1 1 0 00.08-.58 1 1 0 00-.8-.8 1 1 0 00-.58.06.94.94 0 00-.45.36A1 1 0 0015 18zm0-4a1 1 0 00.56-.17.94.94 0 00.36-.45 1 1 0 00.08-.58 1 1 0 00-.8-.8 1 1 0 00-.58.06.94.94 0 00-.45.36A1 1 0 0015 14zm-5 0a1 1 0 00.56-.17.94.94 0 00.36-.45 1 1 0 00.08-.58 1 1 0 00-.8-.8 1 1 0 00-.58.06.94.94 0 00-.45.36A1 1 0 0010 14zm7-12h-1V1a1 1 0 00-.29-.71 1 1 0 00-1.42 0A1 1 0 0014 1v1H6V1a1 1 0 00-.29-.71 1 1 0 00-1.42 0A1 1 0 004 1v1H3a3 3 0 00-3 3v14a3 3 0 003 3h14a3 3 0 003-3V5a3 3 0 00-3-3zm1 17a1 1 0 01-1 1H3a1 1 0 01-1-1v-9h16zm0-11H2V5a1 1 0 011-1h1v1a1 1 0 001.71.71A1 1 0 006 5V4h8v1a1 1 0 102 0V4h1a1 1 0 011 1zM5 14a1 1 0 00.56-.17.94.94 0 00.36-.45A1 1 0 006 12.8a1 1 0 00-.8-.8 1 1 0 00-.58.06.94.94 0 00-.45.36A1 1 0 005 14zm0 4a1 1 0 00.56-.17.94.94 0 00.36-.45A1 1 0 006 16.8a1 1 0 00-.8-.8 1 1 0 00-.58.06.94.94 0 00-.45.36A1 1 0 005 18z"/></symbol><symbol id="cctv_icon"><path d="M18.7 1.1L15 2.31V1a.94.94 0 00-1-1H1a1 1 0 00-1 1v9.93a1 1 0 001 1h5v1.7l-3.8 4.73a1 1 0 00.2 1.4.93.93 0 001.4-.2l3.2-4 3.2 4a1.11 1.11 0 001.4.2 1.08 1.08 0 00.2-1.4L8 13.64v-1.7h6a1 1 0 001-1V9.73l3.7 1.2a1 1 0 001.3-1V2a1 1 0 00-1.3-.9zM13 9.93H2V2h11zm5-1.4l-3-1V4.41l3-1z"/><path d="M4 5h3a1 1 0 001-1 .94.94 0 00-1-1H4a.94.94 0 00-1 1 1 1 0 001 1zm7 4a1 1 0 10-1-1 1 1 0 001 1z"/></symbol><symbol id="clock_icon"><path d="M10 0a10 10 0 1010 10 10.1 10.1 0 00-.76-3.83A10 10 0 0013.83.76 10.1 10.1 0 0010 0zm0 18a8 8 0 115.66-2.34A8 8 0 0110 18zm3.1-7.37L11 9.42V5a1 1 0 10-2 0v5.12a.65.65 0 00.05.2.89.89 0 00.08.17.86.86 0 00.1.16l.16.13.09.09 2.6 1.5a1 1 0 00.5.13 1 1 0 00.61-.2 1 1 0 00.36-.54 1 1 0 000-.65 1.05 1.05 0 00-.43-.48z"/></symbol><symbol id="close-32px_icon"><path d="M16 0a16 16 0 1016 16A16 16 0 0016 0zm0 30a14 14 0 1114-14 14 14 0 01-14 14z"/><path d="M23.71 8.29a1 1 0 00-1.42 0L16 14.59l-6.29-6.3a1 1 0 00-1.42 1.42l6.3 6.29-6.3 6.29a1 1 0 000 1.42 1 1 0 001.42 0l6.29-6.3 6.29 6.3a1 1 0 001.42 0 1 1 0 000-1.42L17.41 16l6.3-6.29a1 1 0 000-1.42z"/></symbol><symbol id="close_icon"><path d="M19.24 6.17A10 10 0 0013.83.76 10 10 0 00.19 12a10 10 0 007.86 7.86A9.84 9.84 0 0010 20a10 10 0 0010-10 10.1 10.1 0 00-.76-3.83zm-2.59 8.27a8 8 0 01-3.59 3A7.81 7.81 0 0110 18a8.17 8.17 0 01-1.56-.15A8 8 0 0110 2a7.81 7.81 0 013.06.61 7.93 7.93 0 014.33 4.33A7.81 7.81 0 0118 10a8 8 0 01-1.35 4.44z"/><path d="M13.71 6.29a1 1 0 00-1.42 0L10 8.59l-2.29-2.3a1 1 0 00-1.42 1.42L8.59 10l-2.3 2.29a1 1 0 000 1.42 1 1 0 001.42 0l2.29-2.3 2.29 2.3a1 1 0 001.42 0 1 1 0 000-1.42L11.41 10l2.3-2.29a1 1 0 000-1.42z"/></symbol><symbol id="contract_icon"><path d="M15 5H9a.94.94 0 00-1 1 .94.94 0 001 1h6a.94.94 0 001-1 .94.94 0 00-1-1zm0 4H9a.94.94 0 00-1 1 .94.94 0 001 1h6a.94.94 0 001-1 .94.94 0 00-1-1zm0 4H9a1 1 0 000 2h6a1 1 0 000-2z"/><path d="M17 0H7a3 3 0 00-3 3v4H1a.94.94 0 00-1 1v9a3 3 0 003 3h14a3 3 0 003-3V3a3 3 0 00-3-3zM4 17a.94.94 0 01-1 1 .94.94 0 01-1-1V9h2zm14 0a.94.94 0 01-1 1H5.8a3 3 0 00.2-1V3a.94.94 0 011-1h10a.94.94 0 011 1z"/></symbol><symbol id="cover_icon"><path d="M10 4a3 3 0 00-3 3 3 3 0 003 3 3 3 0 003-3 3 3 0 00-3-3zm0 4a.94.94 0 01-1-1 .94.94 0 011-1 .94.94 0 011 1 .94.94 0 01-1 1z"/><path d="M15.6 12.6A18.39 18.39 0 0017 7a6.92 6.92 0 00-7-7 6.74 6.74 0 00-7 7.1 19.4 19.4 0 001.5 5.5C1.6 13.3 0 14.5 0 16c0 2.7 5.2 4 10 4s10-1.3 10-4c0-1.5-1.5-2.7-4.4-3.4zM2 16c0-.2.8-1 3.3-1.5a22 22 0 002.3 3.4C3.9 17.5 2 16.4 2 16zm3-9.1A4.81 4.81 0 0110 2a4.89 4.89 0 015 4.9c-.2 2.2-1.1 6.2-5 10.6A18.87 18.87 0 015 6.9zm7.4 11a20 20 0 002.3-3.4c2.5.5 3.3 1.3 3.3 1.5 0 .4-1.9 1.5-5.6 1.9z"/></symbol><symbol id="facebook_icon"><path d="M8.8 14.4H13l.64-4.8H8.8V6.88c0-1.44.32-2.4 2.4-2.4h2.4V.16C13.12.16 12 0 10.24 0 6.56 0 4 2.24 4 6.4v3.2H0v4.8h4v12.8h4.8z"/></symbol><symbol id="fb-messenger_icon"><path d="M13 0C5.82 0 0 5.39 0 12a11.71 11.71 0 004.84 9.37V26l4.43-2.43a13.82 13.82 0 003.73.5c7.18 0 13-5.38 13-12S20.18 0 13 0zm1.29 16.21L11 12.68l-6.48 3.53 7.11-7.54L15 12.2l6.4-3.53z"/></symbol><symbol id="info_icon"><path d="M17.7 5.3l-5-5A.91.91 0 0012 0H1a.94.94 0 00-1 1v18a.94.94 0 001 1h16a.94.94 0 001-1V6a.91.91 0 00-.3-.7zM13 3.4L14.6 5H13zM16 18H2V2h9v4a.94.94 0 001 1h4z"/><path d="M13 14H5a1 1 0 000 2h8a1 1 0 000-2zm-9-4a.94.94 0 001 1h8a.94.94 0 001-1 .94.94 0 00-1-1H5a1 1 0 00-1 1zm1-4h3a.94.94 0 001-1 .94.94 0 00-1-1H5a1 1 0 000 2z"/></symbol><symbol id="instagram_icon"><path d="M20.08 0H8.74A8.73 8.73 0 000 8.7v11.4a8.73 8.73 0 008.74 8.7h11.32a8.71 8.71 0 008.74-8.7V8.7A8.7 8.7 0 0020.08 0zm6.32 20.8a5.6 5.6 0 01-5.6 5.6H8a5.6 5.6 0 01-5.6-5.6V8A5.6 5.6 0 018 2.4h12.8A5.6 5.6 0 0126.4 8z"/><path d="M22.19 5.07a1.75 1.75 0 101.75 1.75 1.74 1.74 0 00-1.75-1.75zm-7.74 2.05a7.37 7.37 0 107.41 7.36 7.4 7.4 0 00-7.41-7.36zm.08 12.08a4.79 4.79 0 114.8-4.78 4.78 4.78 0 01-4.8 4.78z"/></symbol><symbol id="linkedin_icon"><path d="M.34 8.46h5.83V26H.34zM3.31 0A3 3 0 000 3a3 3 0 003.22 3 3 3 0 10.09-6zm17.18 8.05A5.77 5.77 0 0015.22 11V8.46H9.41c.06 1.64 0 17.54 0 17.54h5.82v-9.8a3.84 3.84 0 01.2-1.42 3.18 3.18 0 013-2.13c2.12 0 2.95 1.6 2.95 4V26h5.82V15.94c-.01-5.39-2.89-7.89-6.71-7.89z"/></symbol><symbol id="menu-32px_icon"><path d="M16 0a16 16 0 1016 16A16 16 0 0016 0zm0 30a14 14 0 1114-14 14 14 0 01-14 14z"/><path d="M23 9H9a1 1 0 000 2h14a1 1 0 000-2zm0 6H9a1 1 0 000 2h14a1 1 0 000-2zm0 6H9a1 1 0 000 2h14a1 1 0 000-2z"/></symbol><symbol id="question_icon"><path d="M9.29 13.29l-.12.15a.76.76 0 00-.09.18.64.64 0 00-.08.18v.2a.84.84 0 00.08.38.9.9 0 00.54.54.94.94 0 00.76 0 .9.9 0 00.54-.54A1.21 1.21 0 0011 14a1 1 0 00-.07-.38 1 1 0 00-.55-.55.94.94 0 00-.76 0 1 1 0 00-.33.22zM10 0a10 10 0 1010 10 10.1 10.1 0 00-.76-3.83A10 10 0 0013.83.76 10.1 10.1 0 0010 0zm0 18a8 8 0 115.66-2.34A8 8 0 0110 18zm0-13a3 3 0 00-1.5.4 2.91 2.91 0 00-1.1 1.1 1 1 0 00-.14.37 1.07 1.07 0 000 .4 1 1 0 00.17.37 1.25 1.25 0 00.3.26 1 1 0 00.78.1 1 1 0 00.36-.19 1 1 0 00.25-.31 1.09 1.09 0 01.37-.37A1.06 1.06 0 0110 7a1 1 0 110 2 1 1 0 00-1 1v1a1 1 0 102 0v-.18a3 3 0 001.57-1.31 3 3 0 00-.65-3.8A3.07 3.07 0 0010 5z"/></symbol><symbol id="services_icon"><path d="M19 14a.94.94 0 001-1V1a.94.94 0 00-1-1H1a.94.94 0 00-1 1v12a.94.94 0 001 1h8.1v.2A3.19 3.19 0 007.3 16H1.1a1 1 0 000 2h6.2a3 3 0 005.6 0h6a1 1 0 000-2h-6a3.19 3.19 0 00-1.8-1.8V14zM2 2h16v4H2zm8.1 16a1 1 0 010-2 1 1 0 110 2zM2 12V8h16v4z"/><circle cx="4" cy="4" r="1"/><circle cx="7" cy="4" r="1"/><circle cx="16" cy="4" r="1"/><circle cx="4" cy="10" r="1"/><circle cx="7" cy="10" r="1"/><circle cx="16" cy="10" r="1"/></symbol><symbol id="stocks_icon"><path d="M15 12V7a7 7 0 00-7-7 7 7 0 00-7 7v5a1 1 0 000 2h6v1a.94.94 0 001 1 .94.94 0 001-1v-1h6a1 1 0 000-2zm-2 0H3V7a5 5 0 015-5 5 5 0 015 5z"/><path d="M8 4a3 3 0 00-3 3 .94.94 0 001 1 .94.94 0 001-1 .94.94 0 011-1 .94.94 0 001-1 .94.94 0 00-1-1zm2 12a.94.94 0 00-1 1 .94.94 0 01-1 1 .94.94 0 01-1-1 .94.94 0 00-1-1 .94.94 0 00-1 1 3 3 0 003 3 3 3 0 003-3 .94.94 0 00-1-1z"/></symbol><symbol id="tariffs_icon"><path d="M19 0H1a.94.94 0 00-1 1v12a.94.94 0 001 1h18a.94.94 0 001-1V1a.94.94 0 00-1-1zm-1 12H2V6h16zm0-8H2V2h16z"/></symbol><symbol id="telegram_icon"><path d="M25.7.21a.85.85 0 00-.86-.16C20.29 1.74 6.31 7 .59 9.1a.89.89 0 00.05 1.69c2.57.77 5.93 1.84 5.93 1.84S8.15 17.38 9 19.79a.92.92 0 001.53.4L13.85 17s3.87 2.83 6.07 4.4a1.28 1.28 0 001.2.15 1.24 1.24 0 00.78-.91C22.84 16.25 25.12 5.05 26 1a.82.82 0 00-.3-.79zm-4.45 4.07l-11 10L9.81 18 8 12l12.87-8.2a.3.3 0 01.41.07.31.31 0 01-.03.41z"/></symbol><symbol id="ua-hrn-icon"><path d="M13 12V9.56H0V12h1.48a3.3 3.3 0 00-.6 1.82C.88 16.4 2.81 18 6.54 18c3.89 0 5.67-1.46 5.85-4.77H8.82C8.75 14.55 7.87 15 6.54 15s-2.15-.55-2.16-1.54A2.46 2.46 0 015 12zM6.61 3c1.22 0 1.86.51 1.85 1.29a1.93 1.93 0 01-.64 1.51H0v2.46h13V5.81h-1.67a3.09 3.09 0 00.6-1.8c0-2.4-1.93-4-5.39-4S1.31 1.63 1.13 4.57h3.53C4.71 3.57 5.34 3 6.61 3z"/></symbol><symbol id="viber_icon"><path d="M13.82 15.49a.9.9 0 00.74-.27l.5-.63a1.1 1.1 0 011.41-.2 12.48 12.48 0 012.41 1.73 1 1 0 01.21 1.26 5.54 5.54 0 01-1.09 1.3 1.72 1.72 0 01-1.67.45 20.52 20.52 0 01-5.39-3 17.05 17.05 0 01-5.19-7.6 1.71 1.71 0 01.45-1.67 5 5 0 011.29-1.08 1 1 0 011.27.15A15.26 15.26 0 0110.5 8.4a1.14 1.14 0 01-.2 1.41l-.63.5a1 1 0 00-.29.74 6.63 6.63 0 004.44 4.44zm5.52-3a.34.34 0 01-.34-.29 6.65 6.65 0 00-1.84-4.88 6.34 6.34 0 00-4.54-1.79.35.35 0 010-.68 7 7 0 015 2 7.29 7.29 0 012.1 5.38.35.35 0 01-.34.35zm-1.78-.69a.32.32 0 01-.32-.33 4 4 0 00-1-2.9 4.33 4.33 0 00-3-1.29.34.34 0 01-.33-.28v-.1a.33.33 0 01.35-.32 4.94 4.94 0 013.43 1.51 4.7 4.7 0 011.21 3.41.36.36 0 01-.33.37zm-1.77-.6a.34.34 0 01-.34-.32A1.64 1.64 0 0014 9.15h-.24a.35.35 0 01-.4-.29.34.34 0 01.27-.39h.13a2.29 2.29 0 012.42 2.15v.24a.34.34 0 01-.32.35zm7.67 3.95c-.68 5.57-4.72 5.85-5.46 6.12a22.5 22.5 0 01-6.89.59S8.39 25.17 7.53 26a.48.48 0 01-.39.16C7 26.19 7 26 7 25.73v-4.52c-5.32-1.48-5-7.12-4.93-10s.61-5.34 2.25-6.9c3-2.71 9-2.27 9-2.27 5.11 0 7.56 1.56 8.13 2.07 1.89 1.58 2.84 5.44 2.14 11.11zm-.72-12.47C22.08 2 19.37.07 13.32 0c0 0-7.12-.43-10.6 2.76C.79 4.73.11 7.56 0 11.07s-.13 10.09 6.21 11.87v2.7s0 1.11.69 1.32 1.39-.56 2.23-1.47c.46-.49 1.09-1.22 1.57-1.77a24.43 24.43 0 008-.59c.88-.29 5.84-.92 6.65-7.5.82-6.74-.41-11-2.63-13z"/></symbol><symbol id="whatsapp_icon"><path d="M22 3.83a12.87 12.87 0 00-22 9 11.68 11.68 0 001.78 6.43L0 26l6.84-1.78A12.17 12.17 0 0013 25.86 12.84 12.84 0 0025.86 13 12.51 12.51 0 0022 3.83zm-9 19.71A10.92 10.92 0 017.53 22l-.41-.27L3 22.85l1.1-4-.28-.41a10.45 10.45 0 01-1.64-5.74A10.69 10.69 0 0112.86 2.05a10.24 10.24 0 017.53 3.15 10.46 10.46 0 013.15 7.53A10.53 10.53 0 0113 23.54zm5.88-7.94l-2.19-1.09c-.27-.14-.54-.14-.68.13a9 9 0 01-1.09 1.23c-.14.28-.41.28-.69.14a9.76 9.76 0 01-2.6-1.64 8.66 8.66 0 01-1.78-2.19.62.62 0 01.14-.69 1.8 1.8 0 00.41-.49.72.72 0 00.27-.55c.14-.27 0-.41 0-.55S10 8.21 9.72 7.53 9.17 7 9 7h-.52a1.21 1.21 0 00-.82.41 3.63 3.63 0 00-1.09 2.74 4.85 4.85 0 001.37 3.28 14 14 0 005.47 4.79c.82.27 1.37.55 1.78.68a3.59 3.59 0 004.24-1.36 2 2 0 00.14-1.54 3 3 0 00-.69-.4z"/></symbol></svg>