<svg xmlns="http://www.w3.org/2000/svg" width="20" height="22" viewBox="0 0 20 22"><path d="M10 18a1 1 0 00.56-.17.94.94 0 00.36-.45 1 1 0 00.08-.58 1 1 0 00-.8-.8 1 1 0 00-.58.06.94.94 0 00-.45.36A1 1 0 0010 18zm5 0a1 1 0 00.56-.17.94.94 0 00.36-.45 1 1 0 00.08-.58 1 1 0 00-.8-.8 1 1 0 00-.58.06.94.94 0 00-.45.36A1 1 0 0015 18zm0-4a1 1 0 00.56-.17.94.94 0 00.36-.45 1 1 0 00.08-.58 1 1 0 00-.8-.8 1 1 0 00-.58.06.94.94 0 00-.45.36A1 1 0 0015 14zm-5 0a1 1 0 00.56-.17.94.94 0 00.36-.45 1 1 0 00.08-.58 1 1 0 00-.8-.8 1 1 0 00-.58.06.94.94 0 00-.45.36A1 1 0 0010 14zm7-12h-1V1a1 1 0 00-.29-.71 1 1 0 00-1.42 0A1 1 0 0014 1v1H6V1a1 1 0 00-.29-.71 1 1 0 00-1.42 0A1 1 0 004 1v1H3a3 3 0 00-3 3v14a3 3 0 003 3h14a3 3 0 003-3V5a3 3 0 00-3-3zm1 17a1 1 0 01-1 1H3a1 1 0 01-1-1v-9h16zm0-11H2V5a1 1 0 011-1h1v1a1 1 0 001.71.71A1 1 0 006 5V4h8v1a1 1 0 102 0V4h1a1 1 0 011 1zM5 14a1 1 0 00.56-.17.94.94 0 00.36-.45A1 1 0 006 12.8a1 1 0 00-.8-.8 1 1 0 00-.58.06.94.94 0 00-.45.36A1 1 0 005 14zm0 4a1 1 0 00.56-.17.94.94 0 00.36-.45A1 1 0 006 16.8a1 1 0 00-.8-.8 1 1 0 00-.58.06.94.94 0 00-.45.36A1 1 0 005 18z"/></svg>