<svg xmlns="http://www.w3.org/2000/svg" width="20" height="20" viewBox="0 0 20 20"><path d="M19.24 6.17A10 10 0 0013.83.76 10 10 0 00.19 12a10 10 0 007.86 7.86A9.84 9.84 0 0010 20a10 10 0 0010-10 10.1 10.1 0 00-.76-3.83zm-2.59 8.27a8 8 0 01-3.59 3A7.81 7.81 0 0110 18a8.17 8.17 0 01-1.56-.15A8 8 0 0110 2a7.81 7.81 0 013.06.61 7.93 7.93 0 014.33 4.33A7.81 7.81 0 0118 10a8 8 0 01-1.35 4.44z"/><path d="M13.71 6.29a1 1 0 00-1.42 0L10 8.59l-2.29-2.3a1 1 0 00-1.42 1.42L8.59 10l-2.3 2.29a1 1 0 000 1.42 1 1 0 001.42 0l2.29-2.3 2.29 2.3a1 1 0 001.42 0 1 1 0 000-1.42L11.41 10l2.3-2.29a1 1 0 000-1.42z"/></svg>