<svg xmlns="http://www.w3.org/2000/svg" width="20" height="20" viewBox="0 0 20 20"><path d="M10 4a3 3 0 00-3 3 3 3 0 003 3 3 3 0 003-3 3 3 0 00-3-3zm0 4a.94.94 0 01-1-1 .94.94 0 011-1 .94.94 0 011 1 .94.94 0 01-1 1z"/><path d="M15.6 12.6A18.39 18.39 0 0017 7a6.92 6.92 0 00-7-7 6.74 6.74 0 00-7 7.1 19.4 19.4 0 001.5 5.5C1.6 13.3 0 14.5 0 16c0 2.7 5.2 4 10 4s10-1.3 10-4c0-1.5-1.5-2.7-4.4-3.4zM2 16c0-.2.8-1 3.3-1.5a22 22 0 002.3 3.4C3.9 17.5 2 16.4 2 16zm3-9.1A4.81 4.81 0 0110 2a4.89 4.89 0 015 4.9c-.2 2.2-1.1 6.2-5 10.6A18.87 18.87 0 015 6.9zm7.4 11a20 20 0 002.3-3.4c2.5.5 3.3 1.3 3.3 1.5 0 .4-1.9 1.5-5.6 1.9z"/></svg>