<svg xmlns="http://www.w3.org/2000/svg" width="28.8" height="28.8" viewBox="0 0 28.8 28.8"><path d="M20.08 0H8.74A8.73 8.73 0 000 8.7v11.4a8.73 8.73 0 008.74 8.7h11.32a8.71 8.71 0 008.74-8.7V8.7A8.7 8.7 0 0020.08 0zm6.32 20.8a5.6 5.6 0 01-5.6 5.6H8a5.6 5.6 0 01-5.6-5.6V8A5.6 5.6 0 018 2.4h12.8A5.6 5.6 0 0126.4 8z"/><path d="M22.19 5.07a1.75 1.75 0 101.75 1.75 1.74 1.74 0 00-1.75-1.75zM14.45 7.12a7.37 7.37 0 107.41 7.36 7.4 7.4 0 00-7.41-7.36zm.08 12.08a4.79 4.79 0 114.8-4.78 4.78 4.78 0 01-4.8 4.78z"/></svg>