<svg xmlns="http://www.w3.org/2000/svg" width="20" height="20" viewBox="0 0 20 20"><path d="M9.29 13.29l-.12.15a.76.76 0 00-.09.18.64.64 0 00-.08.18v.2a.84.84 0 00.08.38.9.9 0 00.54.54.94.94 0 00.76 0 .9.9 0 00.54-.54A1.21 1.21 0 0011 14a1 1 0 00-.07-.38 1 1 0 00-.55-.55.94.94 0 00-.76 0 1 1 0 00-.33.22zM10 0a10 10 0 1010 10 10.1 10.1 0 00-.76-3.83A10 10 0 0013.83.76 10.1 10.1 0 0010 0zm0 18a8 8 0 115.66-2.34A8 8 0 0110 18zm0-13a3 3 0 00-1.5.4 2.91 2.91 0 00-1.1 1.1 1 1 0 00-.14.37 1.07 1.07 0 000 .4 1 1 0 00.17.37 1.25 1.25 0 00.3.26 1 1 0 00.78.1 1 1 0 00.36-.19 1 1 0 00.25-.31 1.09 1.09 0 01.37-.37A1.06 1.06 0 0110 7a1 1 0 110 2 1 1 0 00-1 1v1a1 1 0 102 0v-.18a3 3 0 001.57-1.31 3 3 0 00-.65-3.8A3.07 3.07 0 0010 5z"/></svg>