<svg xmlns="http://www.w3.org/2000/svg" width="20" height="20" viewBox="0 0 20 20"><path d="M19 14a.94.94 0 001-1V1a.94.94 0 00-1-1H1a.94.94 0 00-1 1v12a.94.94 0 001 1h8.1v.2A3.19 3.19 0 007.3 16H1.1a1 1 0 000 2h6.2a3 3 0 005.6 0h6a1 1 0 000-2h-6a3.19 3.19 0 00-1.8-1.8V14zM2 2h16v4H2zm8.1 16a1 1 0 010-2 1 1 0 110 2zM2 12V8h16v4z"/><circle cx="4" cy="4" r="1"/><circle cx="7" cy="4" r="1"/><circle cx="16" cy="4" r="1"/><circle cx="4" cy="10" r="1"/><circle cx="7" cy="10" r="1"/><circle cx="16" cy="10" r="1"/></svg>