<svg xmlns="http://www.w3.org/2000/svg" width="25.65" height="27" viewBox="0 0 25.65 27"><path d="M13.82 15.49a.9.9 0 00.74-.27l.5-.63a1.1 1.1 0 011.41-.2 12.48 12.48 0 012.41 1.73 1 1 0 01.21 1.26 5.54 5.54 0 01-1.09 1.3 1.72 1.72 0 01-1.67.45 20.52 20.52 0 01-5.39-3 17.05 17.05 0 01-5.19-7.6 1.71 1.71 0 01.45-1.67 5 5 0 011.29-1.08 1 1 0 011.27.15A15.26 15.26 0 0110.5 8.4a1.14 1.14 0 01-.2 1.41l-.63.5a1 1 0 00-.29.74 6.63 6.63 0 004.44 4.44zm5.52-3a.34.34 0 01-.34-.29 6.65 6.65 0 00-1.84-4.88 6.34 6.34 0 00-4.54-1.79.35.35 0 010-.68 7 7 0 015 2 7.29 7.29 0 012.1 5.38.35.35 0 01-.34.35zm-1.78-.69a.32.32 0 01-.32-.33 4 4 0 00-1-2.9 4.33 4.33 0 00-3-1.29.34.34 0 01-.33-.28v-.1a.33.33 0 01.35-.32 4.94 4.94 0 013.43 1.51 4.7 4.7 0 011.21 3.41.36.36 0 01-.33.37zm-1.77-.6a.34.34 0 01-.34-.32A1.64 1.64 0 0014 9.15h-.24a.35.35 0 01-.4-.29.34.34 0 01.27-.39h.13a2.29 2.29 0 012.42 2.15v.24a.34.34 0 01-.32.35zm7.67 3.95c-.68 5.57-4.72 5.85-5.46 6.12a22.5 22.5 0 01-6.89.59S8.39 25.17 7.53 26a.48.48 0 01-.39.16C7 26.19 7 26 7 25.73v-4.52c-5.32-1.48-5-7.12-4.93-10s.61-5.34 2.25-6.9c3-2.71 9-2.27 9-2.27 5.11 0 7.56 1.56 8.13 2.07 1.89 1.58 2.84 5.44 2.14 11.11zm-.72-12.47C22.08 2 19.37.07 13.32 0c0 0-7.12-.43-10.6 2.76C.79 4.73.11 7.56 0 11.07s-.13 10.09 6.21 11.87v2.7s0 1.11.69 1.32 1.39-.56 2.23-1.47c.46-.49 1.09-1.22 1.57-1.77a24.43 24.43 0 008-.59c.88-.29 5.84-.92 6.65-7.5.82-6.74-.41-11-2.63-13z"/></svg>