<svg xmlns="http://www.w3.org/2000/svg" width="25.86" height="26" viewBox="0 0 25.86 26"><path d="M22 3.83a12.87 12.87 0 00-22 9 11.68 11.68 0 001.78 6.43L0 26l6.84-1.78A12.17 12.17 0 0013 25.86 12.84 12.84 0 0025.86 13 12.51 12.51 0 0022 3.83zm-9 19.71A10.92 10.92 0 017.53 22l-.41-.27L3 22.85l1.1-4-.28-.41a10.45 10.45 0 01-1.64-5.74A10.69 10.69 0 0112.86 2.05a10.24 10.24 0 017.53 3.15 10.46 10.46 0 013.15 7.53A10.53 10.53 0 0113 23.54zm5.88-7.94l-2.19-1.09c-.27-.14-.54-.14-.68.13a9 9 0 01-1.09 1.23c-.14.28-.41.28-.69.14a9.76 9.76 0 01-2.6-1.64 8.66 8.66 0 01-1.78-2.19.62.62 0 01.14-.69 1.8 1.8 0 00.41-.49.72.72 0 00.27-.55c.14-.27 0-.41 0-.55S10 8.21 9.72 7.53 9.17 7 9 7h-.52a1.21 1.21 0 00-.82.41 3.63 3.63 0 00-1.09 2.74 4.85 4.85 0 001.37 3.28 14 14 0 005.47 4.79c.82.27 1.37.55 1.78.68a3.59 3.59 0 004.24-1.36 2 2 0 00.14-1.54 3 3 0 00-.69-.4z"/></svg>